<svg xmlns="http://www.w3.org/2000/svg" width="62.883" height="85.928" viewBox="0 0 62.883 85.928"><g transform="translate(0 85.928)"><path d="M47.262-68.05a4.6,4.6,0,0,0,5.3-.277.115.115,0,0,0,.048-.117.192.192,0,0,0,.012-.151c0-.01-.026-.1-.023-.047a.22.22,0,0,0-.123-.182,1.58,1.58,0,0,0,.022-1.64.073.073,0,0,0-.131.02c-.007.035-.019.071-.029.107-.354-.7-1.1-.977-1.658-1.569-.739-.778-1.706-1.265-2.422-2.066A4.725,4.725,0,0,0,46.6-75.388c-.007-.007-.01-.017-.019-.02a.792.792,0,0,0-.437-.127c-.012,0-.021-.007-.035-.01a.2.2,0,0,0-.15.039c-.712.222-1.121,1.592-1.209,2.151a7.251,7.251,0,0,0-.065,1.974C44.788-69.928,46.1-68.774,47.262-68.05Zm-2.189-3.885c.013-.318.059-.638.1-.952a6.66,6.66,0,0,1,.274-1.245c.176-.53.51-.664.893-.879a27.644,27.644,0,0,1,2.791,2.3c.476.377.981.757,1.421,1.174a15.9,15.9,0,0,0-2.239-1.4c-.015-.007-.034.013-.019.025.6.479,1.215.937,1.77,1.461a3.557,3.557,0,0,1,.978,1.195c-.039.079-.08.155-.117.227a2.314,2.314,0,0,0-.386,1.11.067.067,0,0,0,.124.034c.159-.249.34-.442.483-.713a3.437,3.437,0,0,0,.259-.612.367.367,0,0,0,.046-.186s0,0,0-.006a2.516,2.516,0,0,1,.291,1.265,2.713,2.713,0,0,1-1.777.888.37.37,0,0,0,.216-.252.271.271,0,0,0,.039-.145.051.051,0,0,0-.038-.049.17.17,0,0,0-.024-.005.324.324,0,0,0-.121-.124c-.756-.463-1.5-.871-2.222-1.4S46.4-71.353,45.687-71.9c-.045-.034-.084.036-.055.073,1.048,1.329,2.517,2.1,3.72,3.219-.039.015-.078.028-.117.041a2.843,2.843,0,0,1-1-.609,2.523,2.523,0,0,0-.991-.747.025.025,0,0,0-.02.046,4.142,4.142,0,0,1,.908.976,3.83,3.83,0,0,0,.6.551.155.155,0,0,1-.023.012,3.769,3.769,0,0,1-.576-.19,16.669,16.669,0,0,1-1.879-1.622A4.168,4.168,0,0,1,45.232-71.5C45.174-71.645,45.121-71.792,45.073-71.936ZM33.03-26.212a.5.5,0,0,0,.391-.017.609.609,0,0,1,.031.137.042.042,0,0,0,.03.04c.42.12.978.957.73,1.381-.183.311.029.908.161,1.208.083.191.318.131.417,0l0,0a.09.09,0,0,1,0-.015.211.211,0,0,0,.032-.094,2.154,2.154,0,0,0,.1-.776.6.6,0,0,0-.141-.4.375.375,0,0,0-.164-.094c.03.011-.075-.337-.081-.352a1.351,1.351,0,0,0-.474-.7c-.265-.165-.539-.13-.46-.489a.126.126,0,0,0-.057-.141c-.256-.117-.328-.012-.552.128A.1.1,0,0,0,33.03-26.212ZM10.225-74.558c.736-.765,1.712-2.013,2.841-2.108s2.206-.308,3.334-.314c.027,0,.033-.043.006-.053-.879-.244-2.624-.65-3.444-.023a17.064,17.064,0,0,0-2.812,2.423A.053.053,0,0,0,10.225-74.558Zm9.958-1.38a.54.54,0,0,0,.2-.209.406.406,0,0,0-.172-.562h0a.24.24,0,0,0-.34,0h0a.406.406,0,0,0-.172.562C19.8-75.976,19.967-75.826,20.183-75.938ZM31.838-56.286a.7.7,0,0,0,.116.084c0,.012,0,.024,0,.036a.234.234,0,0,0,.3.224.219.219,0,0,1,.082-.008c.21.245.465.1.354-.278a.229.229,0,0,0-.164-.162l-.142-.023a.214.214,0,0,0-.133-.13.5.5,0,0,1-.192-.09.2.2,0,0,0-.192-.05c-.324.081-.568.285-.881.383-.022.007-.026.045,0,.049A2.478,2.478,0,0,0,31.838-56.286ZM20.8-78.053c.088-.185.376-.454.228-.711a.182.182,0,0,0-.139-.137c-.222-.112-.411.056-.541.229a.565.565,0,0,0-.066.619A.3.3,0,0,0,20.8-78.053ZM13.825-60.789c-.443-.013-.241-.3-.3-.566a1.211,1.211,0,0,0-.763-.881,2.3,2.3,0,0,1-1.312-1.477,13.408,13.408,0,0,0-.793-1.783c-.014-.025-.056-.009-.047.019.336.961.434,1.981.86,2.913.389.854,1.255,1.051,1.7,1.832a.186.186,0,0,0,.336-.044c-.011.052.463.1.3.077A.046.046,0,1,0,13.825-60.789Zm9.91,23.141c-1.748-3.813-.784-7.7.79-11.368.013-.03-.028-.056-.045-.027a18.351,18.351,0,0,0-2.032,5.978c-.215,1.606-.2,4.368,1.1,5.562A.121.121,0,0,0,23.735-37.648ZM6.186-66.323c.692.265,1.385.838,2.152.627.055-.015.061-.108,0-.118-.577-.1-1.019-.647-1.588-.824a6.244,6.244,0,0,1-1.162-.275,5.914,5.914,0,0,1-1.016-.759c-.09-.076-.219.051-.129.13A6.42,6.42,0,0,0,6.186-66.323Zm32.931.905a13.559,13.559,0,0,0-2.308-.121c-1.223-.062-2.422-.487-3.642-.575-.043,0-.039.059,0,.062,1.99.265,3.9,1.026,5.95.722C39.162-65.336,39.159-65.408,39.117-65.418Zm-1.24,2.589c-.539.013-1.035-.13-1.578-.094a.2.2,0,0,0-.138.065c-.624-.043-1.189-.5-1.824-.435a.015.015,0,0,0,0,.029,5.774,5.774,0,0,0,1.99.759.138.138,0,0,0,.1-.029,4.078,4.078,0,0,0,1.471-.213A.042.042,0,0,0,37.877-62.829ZM21.843-78.471a15.463,15.463,0,0,1,4.616-.458.2.2,0,0,0,.17.092c.523,0,1-.072,1.523-.1a.06.06,0,0,0,.017-.118c-.028-.01-.055-.015-.081-.025a.236.236,0,0,0-.011-.155c-.156-.348-.588-.3-.952-.294.041-.175-.135-.386-.314-.257s-.728.012-.943.032a.675.675,0,0,0-.5.238.041.041,0,0,0,.049.064,1.5,1.5,0,0,1,.7-.064c.093.005.315,0,.478.024-.013.016-.02.037-.034.053a.181.181,0,0,0-.022.157,31.3,31.3,0,0,0-4.716.74A.036.036,0,0,0,21.843-78.471Zm18.8-4.39a.236.236,0,0,1,.131-.023c.027.034.066.059.1.09a.172.172,0,0,0,.244,0,.184.184,0,0,0,.05-.121.173.173,0,0,0-.172-.172.347.347,0,0,0-.211.058c-.006.006-.044.048-.03.04-.04.028-.088.047-.131.072S40.6-82.849,40.639-82.86Zm4.868,2.4c1.167-.082,2.357.772,3.531.964a.241.241,0,0,0,.294-.212,5.1,5.1,0,0,1,3.743,1.323.046.046,0,0,0,.066-.065,8.142,8.142,0,0,0-2.148-1.36,2.551,2.551,0,0,0-2.089-.31.19.19,0,0,0-.135.108c-1.108-.209-2.137-.815-3.285-.609C45.392-80.609,45.416-80.458,45.507-80.465Zm-12.02-.062a17.83,17.83,0,0,1,3.74.732.215.215,0,0,0,.317-.18c0-.006,1.252.461,1.554.559a4.643,4.643,0,0,1,2.454,1.3c.033.043.1-.013.072-.055a3.266,3.266,0,0,0-2.078-1.348c-.7-.248-1.466-.97-2.26-.82a.21.21,0,0,0-.156.2c0-.406-3.188-.4-3.636-.432A.022.022,0,0,0,33.487-80.527ZM32.424-66.219a.1.1,0,0,0,.018-.148c-.151-.142-.312-.163-.3-.416a2.733,2.733,0,0,0-.108-.724.231.231,0,0,0-.226-.173l-.023,0a11.331,11.331,0,0,0,.054-1.647c0-.032-.056-.045-.061-.009-.086.6-.282,1.234-.412,1.834a.2.2,0,0,0,.142.251l.055.008a1.593,1.593,0,0,1-.073.525.482.482,0,0,0,.135.427A.644.644,0,0,0,32.424-66.219Zm.41,3.491c-.149-.1-.306-.11-.44-.233a1.472,1.472,0,0,1-.318-.813c-.007-.033-.054-.023-.056.007a2.661,2.661,0,0,0,.249,1.33,1.228,1.228,0,0,0,.4.417c.232.188.545.183.75.394.015.016.048,0,.038-.022a4.344,4.344,0,0,0-.171-.641A1.318,1.318,0,0,0,32.834-62.728Zm8.1-14.956a1.57,1.57,0,0,0-.587,1.249.119.119,0,0,0,.2.084c.182-.192.559-.757.876-.585a.38.38,0,0,0,.444-.057c.5-.42.273-1.007.3-1.528a11.806,11.806,0,0,0-.207-2.578.025.025,0,0,0-.05.007c.038.52.067,1.042.079,1.564a4.135,4.135,0,0,1-.216,1.481c-.126.4.024.349-.224.307A.846.846,0,0,0,40.936-77.684Zm-11.8-1.041a.11.11,0,0,0,.1.076c1.624.207.707,6.617.7,7.69,0,.034.047.032.051,0,.208-1.883.445-3.794.487-5.689a2.418,2.418,0,0,0-.46-1.628c.363.364-.809-.819-.768-.72a.109.109,0,0,0-.1-.077l-.367.034a.031.031,0,0,0-.009.06ZM27.35-61.6c-.575.058-1.143.153-1.717.222a.025.025,0,0,0,0,.05c.664.046,1.335-.177,1.99-.077a1.233,1.233,0,0,0,.98-.065.054.054,0,0,0-.042-.1A11.143,11.143,0,0,1,27.35-61.6ZM22.932-80.057a6.783,6.783,0,0,1,3.294-.663c.007,0,.011,0,.017,0a.058.058,0,0,0,.059.049c.4-.013.8-.091,1.2-.137a.039.039,0,1,0,0-.079,11.511,11.511,0,0,0-1.154.079A.159.159,0,0,0,26.318-81c-.359-.34-.834.019-1.206.127a12.054,12.054,0,0,0-2.2.762C22.876-80.1,22.9-80.043,22.932-80.057Zm4.536,20.094c-.3.02-1.573.18-1.778-.084a.162.162,0,0,0-.219-.059,2.843,2.843,0,0,1-2.367-.476c0-.005-.009,0-.009,0,.135.854,1.961.453,2.45.863.71.6,2.588-.161,3.363-.313.023,0,.018-.041-.006-.04C28.424-60.052,27.945-60,27.468-59.963ZM22.51-61.933a4.459,4.459,0,0,0-.342-1.7c-.356-1.261-.636-2.552-.888-3.836-.433-2.21-1.165-4.231-.861-6.495.008-.062-.071-.108-.108-.045a2.067,2.067,0,0,0-.411,1.848,19.95,19.95,0,0,0,.851,3.6c.39,1.273.67,2.579.942,3.882.337,1.606-.143,2.795.741,4.212.037.057.135.021.112-.047A3.052,3.052,0,0,1,22.51-61.933Zm9.948-18.257a.331.331,0,0,0,.088-.647c-.051-.016-.1-.033-.15-.05A6.186,6.186,0,0,1,36.555-84.4a.041.041,0,0,0-.011-.08,4.914,4.914,0,0,0-2.784,1.226,6.189,6.189,0,0,0-2.074,2.41.334.334,0,0,0,.052.394A.867.867,0,0,0,32.458-80.191ZM23.386-61.474a.4.4,0,0,0,0,.807A.4.4,0,0,0,23.386-61.474Zm34.56-5.2a4.963,4.963,0,0,0,.167-.876A.058.058,0,0,0,58.1-67.6a.024.024,0,0,0-.013,0s0,0,0,0c0-.019-.023-.035-.035-.019s0,0-.014,0a.061.061,0,0,0-.042.042c-.056.3-.1.6-.141.9C57.849-66.627,57.93-66.623,57.946-66.67ZM38.971-33.59c-.528.208-1.064.382-1.594.585-.447.172-.854.42-1.3.6-.084.035-.114.182,0,.2a3.1,3.1,0,0,0,1.414-.381,3.4,3.4,0,0,0,1.566-.853C39.114-33.5,39.065-33.628,38.971-33.59ZM57.684-66.165a.029.029,0,1,0,0,.058A.029.029,0,1,0,57.684-66.165Zm-.8-.974a.614.614,0,0,0,.061.064.463.463,0,0,0,.043.111,1.511,1.511,0,0,1-.13,1.421c-.267.554-.658,1.032-.969,1.559a.054.054,0,0,0,.085.065,6.078,6.078,0,0,0,1.245-1.772,5.18,5.18,0,0,0,.763-1.862c.048-.53-.726-.692-.97-.263-.025.038-.048.076-.073.114a7.264,7.264,0,0,0-2.023-.94c-.066-.024-.09.068-.044.1C55.571-68.024,56.368-67.888,56.888-67.14Zm-.017,3.827c-.06.082-.121.157-.184.232a.674.674,0,0,0-.094.252c-.01.046.039.1.084.066a.779.779,0,0,0,.223-.18c.062-.079.124-.16.179-.246C57.168-63.319,56.959-63.44,56.871-63.313Zm-.788,1.318a2.674,2.674,0,0,1-.206.287c-.12.147-.288.262-.327.458a.069.069,0,0,0,.082.082c.206-.046.317-.235.43-.4a2.093,2.093,0,0,0,.17-.271c.06-.108.027-.2.043-.321,0-.013-.009-.019-.016-.009C56.21-62.09,56.125-62.063,56.083-61.995Zm1.853,2.7.023.023a.2.2,0,0,0,.16.039.09.09,0,0,0,.078-.137.193.193,0,0,0-.267-.1.1.1,0,0,0-.043.108.17.17,0,0,0,.043.063S57.934-59.3,57.936-59.3Zm-36.8,19.512a.072.072,0,0,0-.138,0,3.109,3.109,0,0,0,.011,1.109,5.354,5.354,0,0,0,.192,1.144.2.2,0,0,0,.393-.055,3.764,3.764,0,0,0-.19-.988C21.307-38.975,21.254-39.394,21.141-39.786Zm3.514,10.491-.15-.029A1.07,1.07,0,0,0,24.588-30a.664.664,0,0,0-.946-.415.408.408,0,0,0-.015.683.618.618,0,0,0,.027.072c.029.049.064.092.1.137a1.35,1.35,0,0,1,.092.377.3.3,0,0,0,.116.221.453.453,0,0,0-.167.247c-.008.026-.016.053-.022.079a.5.5,0,0,0,.195.543c.163.216.039.5.108.749a.051.051,0,0,0,.093.012c.136-.2.077-.533.265-.7a.53.53,0,0,0,.332-.475c0-.027,0-.054.005-.082a.431.431,0,0,0-.24-.422l.059-.011a.881.881,0,0,0,.34-.095.083.083,0,0,0,0-.141A.656.656,0,0,0,24.655-29.295Zm.879-1.668c-.2-.055-.435-.006-.638-.052a3.443,3.443,0,0,1-1.029-.5c-1.194-.761-1.39-2.066-2.184-3.135-.013-.017-.04,0-.026.017a6.689,6.689,0,0,1,.683,2.17,2.715,2.715,0,0,0,1.019,1.3,2.416,2.416,0,0,0,1.688.612c.51-.056.625.418,1.058.245a.089.089,0,0,0,.021-.16C25.9-30.6,25.793-30.889,25.534-30.963Zm-4.343-2.611a.175.175,0,0,0-.129-.169.119.119,0,0,0-.055-.011c-.424.125-.4.553-.635.853a1.19,1.19,0,0,1-.669.365c-.158.038-.316,0-.465.065a.067.067,0,0,0-.024.094c.223.317.872-.027,1.122-.159.3-.16,1.011-.461.833-.907A.457.457,0,0,0,21.191-33.574ZM33.166-31.92c-.848.039-1.657.269-2.506.32a7.328,7.328,0,0,1-3.2-.752,4.812,4.812,0,0,1-2.5-2.756,6.273,6.273,0,0,0-.667-1.516c-.1-.148-.343-.016-.247.145.469.787.14,1.267.877,1.981A12.822,12.822,0,0,0,27.4-32.255a6.839,6.839,0,0,0,5.845.638C33.4-31.684,33.322-31.928,33.166-31.92ZM60.009-66.2a.067.067,0,0,0-.016.122c.386.23.72.428.84.9a5.618,5.618,0,0,0,.216,1.038.39.39,0,0,0,.538.141,3.8,3.8,0,0,1-.178.933c-.033.1-.072.195-.1.3-.039.158.122.267.094.422a.1.1,0,0,0,.176.075,2.209,2.209,0,0,0,.445-1.131c.044-.426-.228-.7-.252-1.071C61.726-65.184,60.837-66.522,60.009-66.2ZM54.92-48.37c-.068.089-.2.214-.323.355a1.024,1.024,0,0,0-.608.332.878.878,0,0,0-.263.533c-.531.2-1.237.386-1.387.444a.02.02,0,1,0,.011.039c.246-.068.845-.292,1.376-.41a.536.536,0,0,0,.132.327c.2.235.56.164.814.082a.865.865,0,0,0,.637-.6c1.277-1.149,1.7-3.244,2.506-4.717.667-1.21,1.376-2.4,2.017-3.62.166-.316.813-2.558,1.111-2.65.93-.284-.526-1.262-.477-.364a5.815,5.815,0,0,1-.939,2.836c-.707,1.4-1.485,2.764-2.186,4.171A20.3,20.3,0,0,1,54.92-48.37ZM45.859-40.7c-1.377,2.219-3.272,3.807-4.972,5.714a.023.023,0,0,0,.021.039c1.522-.3,2.91-2.042,3.757-3.243a17.748,17.748,0,0,0,1.8-3.246A10.179,10.179,0,0,1,47.775-43.7c-.075.07-.151.139-.241.211C46.7-42.821,46.406-41.584,45.859-40.7Zm16.9-23.678a6.367,6.367,0,0,0-2.214-3.744c-.986-.856-2.582-.954-3.095-2,.01-.045.019-.088.032-.133a1.232,1.232,0,0,0,.115-.491,12.428,12.428,0,0,0,.072-5.845,14.554,14.554,0,0,0-4.031-6.342,5.581,5.581,0,0,0-5.044-1.618,8.236,8.236,0,0,0-4.746,2.916c-1.027-2.628-4.557-4.259-7.15-4.286C33.53-85.96,32.078-83.3,30.467-81.1c-1.1-1.494-3.825-1.723-5.456-1.566a10.646,10.646,0,0,0-3.371,1.1c-1.327.611-2.676,1.177-4,1.785a25.765,25.765,0,0,0-7.3,2.347,14.163,14.163,0,0,0-3.4,2.4,4.3,4.3,0,0,0-1.261,2.485,20.452,20.452,0,0,1-2.021,2.471,4.961,4.961,0,0,0-1.386,2.442A10.361,10.361,0,0,0,2.5-64.339,23.613,23.613,0,0,1,2.5-61.214,21.265,21.265,0,0,0,0-51.034c.036,2.171.3,4.351.516,6.508.112,1.125.2,2.262.312,3.4a66.4,66.4,0,0,0,.607,8.11c.269,3.06.552,6.12.919,9.173q.118.986.252,1.962c.108.9.213,1.8.308,2.692.237,2.211.615,4.424.849,6.643.1,1.244.154,2.494.154,3.755-.073,1.18-.254,2.717-.568,2.893a.157.157,0,0,0-.086.177c-.188-.07-.1-.015.015.048a.207.207,0,0,0,.213.111c.045-.006.088-.01.13-.013.691.292,2.3,1,5.787,2.587C17.8.823,19.218.387,21.751-1A28.432,28.432,0,0,1,33.274-4.761c4.823-.327,5.15-.573,6.048-1.39a7.185,7.185,0,0,0,1.426-2.014.456.456,0,0,0,.063-.134,1.687,1.687,0,0,0-.1-1.566,17.655,17.655,0,0,0-.2-4.577c-.008-.082-.015-.162-.023-.241s-.012-.162-.017-.239c-.148-2.471-.4-4.949-.5-7.416a28.2,28.2,0,0,1,.862-7.137,5.749,5.749,0,0,1,.9-2.279q.432-.4.87-.8c.752-.589,1.475-1.223,2.171-1.857A24.151,24.151,0,0,1,48.3-36.795a26.631,26.631,0,0,0,6.992-4.769A14.378,14.378,0,0,0,58.826-47.9c.588-2.148,1.326-4.358,1.859-6.561C62.219-57.409,63.258-61.158,62.755-64.381ZM44.2-79.592a10.532,10.532,0,0,1,.3-1.03,5.679,5.679,0,0,1,1.43-2.017,6.452,6.452,0,0,1,2.348-1.314c2.418-.752,4.442.915,5.916,2.622a12.262,12.262,0,0,1,2.949,6.515,22.71,22.71,0,0,1-.268,4.1.741.741,0,0,1-.167.153.975.975,0,0,1-.744.065,1.8,1.8,0,0,1-.766-.441,1.018,1.018,0,0,1-.156-.176,1.439,1.439,0,0,1,.021-.481c.076-.372.22-.7.292-1.049a9.649,9.649,0,0,0,.488-1.259,4.947,4.947,0,0,0,.405-2.223c-.007-.056-.1-.049-.108,0a10.123,10.123,0,0,1-1.118,2.883,2.774,2.774,0,0,1-.955,1.03,1.31,1.31,0,0,1-.934.193c-.71-.549-1.4-1.131-2.116-1.694-1.605-1.264-3.758-2.984-5.91-2.726a.945.945,0,0,1-.526-.389,3.321,3.321,0,0,1-.376-1.435c-.02-.166-.029-.33-.04-.493A7.123,7.123,0,0,0,44.2-79.592Zm-13.239-1c1.553-2.119,2.824-4.354,5.73-4.577a6.944,6.944,0,0,1,4.191,1.392,6.72,6.72,0,0,1,1.481,1.39,10.366,10.366,0,0,1,.6,3.22,8.939,8.939,0,0,1-.931,3.394,8.994,8.994,0,0,0-.433,1.052,14.121,14.121,0,0,0-.947,3.936,30.239,30.239,0,0,0-.336,5.508,15.5,15.5,0,0,1-.122,1.912,2.974,2.974,0,0,1-.485,1.231c.051-.332.1-.667.171-1a5.532,5.532,0,0,0,.306-2.787,21.534,21.534,0,0,1-.028-8.631c.005-.026-.033-.037-.039-.011a34.989,34.989,0,0,0-.845,7.687c0,.544-.065,1.069-.1,1.611-.05.706.352,1.246.245,2a18.926,18.926,0,0,0-.455,2.157c-.09.126-.178.254-.258.391-.226.383.078.961.183,1.465a5.312,5.312,0,0,0-2.958-.785,2.81,2.81,0,0,0-2.233.877,3.69,3.69,0,0,1,.464-1.953.143.143,0,0,0-.085-.208c-.887-.206-1.716-.079-2.328-1.033a5.742,5.742,0,0,1-.481-1.736s0,0,0,0a16.863,16.863,0,0,1-.432-3.723c.039-1.147.228-2.294.376-3.429a43.189,43.189,0,0,0,.235-6.963,4.112,4.112,0,0,0-.65-2.245A.421.421,0,0,0,30.964-80.589Zm13.068,18.47c.325.212.439.523.7.8a1.429,1.429,0,0,0,.631.366,4.944,4.944,0,0,0,.631.511,4.259,4.259,0,0,1,.39.513,4.946,4.946,0,0,1,.427,1.177,2.571,2.571,0,0,1-.124,1.563,1.54,1.54,0,0,1-.281.11,3.863,3.863,0,0,0-.6-2.592.041.041,0,0,0-.071.041,3.95,3.95,0,0,1,.029,2.648A4.506,4.506,0,0,1,45.283-57a15.25,15.25,0,0,0-.089-1.837.021.021,0,0,0-.041,0,3.991,3.991,0,0,1-.407,1.711.245.245,0,0,0-.027.05,13.915,13.915,0,0,1-1.751-.523.359.359,0,0,0-.1-.082,2.27,2.27,0,0,0-.252-.6,4.28,4.28,0,0,1-.329-1.242,4.193,4.193,0,0,0,.1-.525,1.579,1.579,0,0,1,.352-.721c.328-.391.805-.168,1.218-.267.035-.008.038-.068,0-.074-.5-.072-1.014-.222-1.417.142a1.344,1.344,0,0,0-.367.671,3.54,3.54,0,0,1,.076-.985c.18-.8,1.049-.585,1.578-.942a.075.075,0,0,0,.033-.035.083.083,0,0,0-.033-.115c-1.834-.886-2.362,2.161-1.761,3.966a3.681,3.681,0,0,1-.452-2.613,10.446,10.446,0,0,0,.311-2.5,22.453,22.453,0,0,0-.478-2.648c-.029-.16-.051-.32-.067-.481a.761.761,0,0,1-.011-.107c0-.033,0-.069,0-.1a1.538,1.538,0,0,1,.174-.739c.141-.259.285-.268.422-.16.068.144.135.291.2.435.326.709.583,1.578.918,2.4a19.268,19.268,0,0,0,.89,2.19c.056.121.125.268.209.421a.179.179,0,0,0-.129.062.283.283,0,0,0-.031.05A.061.061,0,0,0,44.032-62.118ZM34.7-56.5a4.929,4.929,0,0,1-.436-.28c-.063-.234-.141-.464-.215-.7a1.9,1.9,0,0,1,.083-1.207c.285-.565,1.192-.172,1.643-.071.521.114,1-.08,1.534.087a.034.034,0,0,0,.027-.061,1.514,1.514,0,0,0-.671-.2,4.7,4.7,0,0,1-1.428-.219,1.137,1.137,0,0,0-1.257.208.769.769,0,0,0-.153.252.9.9,0,0,1,.427-.708,2.578,2.578,0,0,1,1.4-.268,5.691,5.691,0,0,1,2.573.72A2.053,2.053,0,0,1,39.3-57.706c.118.366.033.624.115.905-.219.121-.432.232-.635.33a4.188,4.188,0,0,1-3.683.168c-.184-.619-.256-1.271-.453-1.889-.013-.036-.075-.032-.072.01A12.646,12.646,0,0,1,34.7-56.5ZM20.8-79.769a11.84,11.84,0,0,1,2.445-1.657c2.344-.84,4.345-.386,6.541.575,1.128,1.579,1.145,3.694,1.136,5.577a57.432,57.432,0,0,1-.609,6.306,16.292,16.292,0,0,0,.254,4.9,14.5,14.5,0,0,1,.043,2.19,5.045,5.045,0,0,1-.074.591,13.4,13.4,0,0,0-.5-3.308c-.008-.028-.053-.022-.051.007.061.926.1,1.853.1,2.782a5.98,5.98,0,0,1-.694,2.717,8.457,8.457,0,0,1-1.32,1.068,8.917,8.917,0,0,1-1.334.311c-.284.01-.631-.016-.984-.027-.228-.149-.568-.362-.477-.676a.172.172,0,0,0-.124-.216,6.11,6.11,0,0,1-2.638-.951A4.143,4.143,0,0,1,21.5-62.041c.1-3.665-1.269-7.244-1.788-10.866a9.422,9.422,0,0,1-.056-1.076c0-.006,0-.01,0-.017a4.292,4.292,0,0,1,1.31-1.159,10.632,10.632,0,0,1,2.475-.681c.024-.006.019-.048-.007-.045a8.888,8.888,0,0,0-3.858,1.092,10.638,10.638,0,0,0-.38-1.583A4.858,4.858,0,0,1,20.8-79.769Zm4.2,23.916c-.294-.317-.9-.931-.444-1.216a3.865,3.865,0,0,1,2.183-.392c.642-.007,1.284-.059,1.926-.114a3.649,3.649,0,0,0,.549-.118c.89-.232.6.677.48,1.039a7.5,7.5,0,0,1-1.029.687,4.544,4.544,0,0,1-1.883.428A9.478,9.478,0,0,1,24.994-55.853Zm.224.866s0,0-.007,0-.015-.017-.02-.025Zm-.888-.437h0s0,0,0,0ZM6.9-73.724c.093-.174.188-.347.286-.513.895-1.52,2.794-2.429,4.371-3.047a34.577,34.577,0,0,1,3.314-1.053,3.313,3.313,0,0,1,2.994.647,5.427,5.427,0,0,1,1.06,1.932,35.15,35.15,0,0,0,.8,4.559c.032.2.068.4.113.59.277,1.216.4,2.461.712,3.671,0,0,0,0,0,0,.2,1.121.346,2.253.447,3.387-.428.755-.461,2.167-1.624,1.981a.611.611,0,0,0-.095-.013.234.234,0,0,0-.229.281c-1.1.877-2.929.857-4.239.961a.031.031,0,0,0,0,.062,8.546,8.546,0,0,0,4.5-.823,1.46,1.46,0,0,0,1.6-.864c-.775,2.59-3.838,2.962-6.479,2.472a6.48,6.48,0,0,1-2.355-1.31c-.053-.058-.1-.117-.152-.177-.123-.164-.237-.336-.345-.514-.4-.758-.6-1.673-.967-2.452a19.251,19.251,0,0,1-1.389-3.478c-.268-1.049-.346-2.137-.63-3.181a.042.042,0,0,0-.082.014,9.05,9.05,0,0,0,.114,2.026A10.2,10.2,0,0,1,6.7-71.39C6.427-72.188,6.836-72.949,6.9-73.724ZM8.99-65.388h0a0,0,0,0,0,0,0Zm-.619-3.137a.153.153,0,0,0-.025.032c-.016-.029-.031-.058-.046-.087C8.323-68.561,8.347-68.543,8.371-68.524Zm53.854,5.6a3.5,3.5,0,0,1-.4.892,7,7,0,0,1-.781,1.02,7.166,7.166,0,0,1-.918.876c-.306.206-.671.291-.962.523-.021.013,0,.036.019.033.467-.072.9-.311,1.368-.415a2.792,2.792,0,0,0,1.244-.5c.016-.013.03-.029.047-.046a.012.012,0,0,0,0,.01c-.34,1.474-.854,2.926-1.272,4.391-.118.274-.232.545-.346.824-.06.146-.115.3-.17.45-1.377,2.736-2.574,5.672-4.419,8.058-1.423,1.838-3.338,1.746-5.274,2.508A5.15,5.15,0,0,0,48.2-42.375a39.783,39.783,0,0,0-2.1,3.7,16.534,16.534,0,0,1-3.671,4,25.564,25.564,0,0,1-5.08,3.485A21.591,21.591,0,0,1,32-29.854a25.979,25.979,0,0,1-3.949-.6c-.034-.007-.042.039-.013.052a15.067,15.067,0,0,0,3.9.981c2.355.5,4.358,1.361,5.743,3.436-1.4-1.046-3.564-1.295-5.145-1.45-.034,0-.041.053-.007.06,2.3.509,4.018,1.273,5.015,3.526a19.066,19.066,0,0,1,1.187,3.7c.043,1.21.083,2.421.185,3.635q.057.675.1,1.348a32.256,32.256,0,0,1-.218,4.347c-.239,1.164-1.168,1.194-1.371-.128-.014-.224-.033-.446-.059-.667-.25-2.129-.354-4.283-.457-6.424a12.48,12.48,0,0,0-.538-3.814c-.375-1-.468-2.141-1.319-2.877a.061.061,0,0,0-.086.087c1.121,1.294.775,2.978.715,4.531-.062,1.65.075,3.334.151,4.98.035.775.074,1.56.132,2.346a7.129,7.129,0,0,0,.144,1.539c.041.341.088.682.141,1.02a3.319,3.319,0,0,1-.112,1.266,25.938,25.938,0,0,0-.562-3.148c-.442-2.257-.635-4.558-1.076-6.813-.009-.047-.079-.033-.081.011-.088,3.316.827,7.037-.183,10.28a46.3,46.3,0,0,0-.681-5.948c-.017-.2-.326-.207-.316,0a33.974,33.974,0,0,1-.209,5.677,9.521,9.521,0,0,1-.484,2.2A2.206,2.206,0,0,1,31.209-5.4a30.878,30.878,0,0,0-9.131,2.8A11.51,11.51,0,0,1,17.5-1.207S9.03-3.631,7.613-4.557a4.1,4.1,0,0,1-.63-.511A15.776,15.776,0,0,1,6.309-8.19c-.284-1.406-.185-2.946-.35-4.375C5.6-15.7,5.251-18.847,4.581-21.93c-.007-.033-.054-.019-.049.013A79.162,79.162,0,0,1,5.46-10.455c0,.11,0,.22-.005.33l-.021-.164a55.489,55.489,0,0,0-1.049-6.622c-.678-3.646-1.485-7.141-1.423-10.88.014-.867.014-1.742-.007-2.62a10.086,10.086,0,0,1,.163-1.209,3.693,3.693,0,0,1,.929-1.643,2.7,2.7,0,0,1,2.294-.659c.445.133.9.252,1.347.357a6.089,6.089,0,0,0,2.622.539.04.04,0,0,0,.019-.075,3.719,3.719,0,0,0-1.038-.287l-.681-.206a5.039,5.039,0,0,1-1.229-.8,9.35,9.35,0,0,1-.866-1.121c-.232-.265-.471-.52-.716-.768-.105-.2-.2-.386-.287-.539a20.633,20.633,0,0,1-1.5-3.5,57.265,57.265,0,0,1-1.371-6.892A18.783,18.783,0,0,1,2.3-55.519a25.689,25.689,0,0,0,.7-5.162c.468-2.135-.169-4.119-.293-6.352a2.446,2.446,0,0,1,.136-.954c.418-1.226,1.68-2.243,2.58-3.367a2.306,2.306,0,0,0,0,.742,7.979,7.979,0,0,0,1.339,3.223c.024.033.073,0,.053-.03a7.683,7.683,0,0,1-.974-2.346c.045-.341.038-.755.494-.635a.994.994,0,0,1,.387.215,5.212,5.212,0,0,0,.427.543,24.642,24.642,0,0,1,1.2,2.234c.039.091.077.184.115.279.08.258.167.513.235.766.008.031.017.061.026.092a2.215,2.215,0,0,1,.023.694.522.522,0,0,1-.544.487,19.532,19.532,0,0,1-2.741-1.227A21.01,21.01,0,0,0,3.122-67.9a.012.012,0,0,0-.01,0c0,.006-.007.013,0,.016A21.754,21.754,0,0,0,6.492-65.2c.217.114.442.216.664.319a1.472,1.472,0,0,0,.555.249c.22.1.439.189.66.278s.437.16.647.234c1.143.974,1.661,2.543,2.609,3.7.04.053.078.1.121.157a2.019,2.019,0,0,0,.227.227,3.631,3.631,0,0,0,1.228.814,12.331,12.331,0,0,0,4.33.688,17.485,17.485,0,0,1,2.689.161,3.9,3.9,0,0,1,1.7,1,7.7,7.7,0,0,0,1.387,1.589c.415.359.853.648.887,1.255a1.533,1.533,0,0,1-.39,1.048c-.26.139-.515.292-.769.458a8.129,8.129,0,0,0-2.118,1.747c-.028.023-.056.045-.083.069a.024.024,0,0,0,0,.037c-.009.013-.02.026-.028.039-.034.051.039.1.08.062,1.5-1.323,3.581-1.976,5.3-3.006a.546.546,0,0,1,.248.475A20.281,20.281,0,0,0,24.2-50.571a16.437,16.437,0,0,0-1.837,3.054c-.064.105-.13.21-.2.316a.05.05,0,0,0,.027.07c-.027.064-.057.123-.082.187s.062.082.084.036c.071-.154.152-.3.23-.457.861-1.092,1.527-2.313,2.305-3.466.676-1,1.667-1.775,2.335-2.765.4-.422.794-.838,1.191-1.239a.371.371,0,0,0,.179-.187,19.363,19.363,0,0,1,2.089-1.594A4.114,4.114,0,0,1,32.1-57.1a2.05,2.05,0,0,1,.788.171,1.179,1.179,0,0,1,.47,1.188,1.053,1.053,0,0,1-.366.577,13.39,13.39,0,0,0-4.343,2.914c-.012.012,0,.036.019.024A10.789,10.789,0,0,1,34.458-54.8a13.147,13.147,0,0,0,3.064-.69c.5-.132,1-.31,1.477-.455,1.444-.435,2.393-1.135,3.975-1.01a.1.1,0,0,0,.059-.013,6.513,6.513,0,0,0,2.866.559,2.262,2.262,0,0,0,1.109-.318,8.084,8.084,0,0,0-.357,2.426,5.513,5.513,0,0,0,2.4,4.329c.075.055.144-.056.091-.122a6.082,6.082,0,0,1-1.732-3.661,7.75,7.75,0,0,1,.939-4.563c.036-.069.062-.131.09-.2.03-.034.059-.066.088-.1a2.017,2.017,0,0,1,.8-.408,1.65,1.65,0,0,1,.765-.007,4.191,4.191,0,0,0,1.523.429,3.981,3.981,0,0,0,2.152-.462.426.426,0,0,0,.062.1,1,1,0,0,1-.112.078c-.166.1-.352.153-.525.243-.2.1-.582.212-.61.482a.142.142,0,0,0,.072.126c.28.172.873-.227,1.1-.375.17-.112.353-.2.522-.31a.557.557,0,0,0,.18-.178c.086-.038.17-.083.257-.131.544-.295.066-1.08-.48-.82a.841.841,0,0,0-.457.46,5.386,5.386,0,0,1-2.577.232,10.1,10.1,0,0,1-2.029-.748.109.109,0,0,0-.05-.047,4.888,4.888,0,0,1-3.043-2.864c-.618-1.317-1.171-2.65-1.863-3.929-1.693-3.118-2.991-8.159,1.64-8.933a6.662,6.662,0,0,1,2.812.93,23.994,23.994,0,0,1,3.831,3.312,12.362,12.362,0,0,0,5.4,3.07,7.128,7.128,0,0,1,.6.4c.639,1.179-.14,1.994-.51,3.03a4.327,4.327,0,0,0-.6.984c-.033.085.082.128.137.081a3.587,3.587,0,0,0,.454-.5.067.067,0,0,0,.046-.026,6.387,6.387,0,0,0,.86-1.366c.108-.16.213-.321.32-.477a2.109,2.109,0,0,1,1.124-1,4.693,4.693,0,0,1,.746.52A4.514,4.514,0,0,1,62.225-62.923ZM51.392-47.084a1.513,1.513,0,0,0-.337.239.5.5,0,0,0-.133.5c.014.036.029.072.045.109-.084.085-.171.162-.253.248a.132.132,0,0,0,.127.22.988.988,0,0,0,.35-.249l.092.033a.52.52,0,0,0,.5-.133c.069-.063.133-.132.2-.192a.5.5,0,0,0,.077-.6A.5.5,0,0,0,51.392-47.084Zm-.916,1.357c-.058,0-.122.042-.177.04-.167-.005-.3-.034-.429.1a.408.408,0,0,0-.063.491.409.409,0,0,0,.74-.1.4.4,0,0,0,0-.216c-.029-.106-.082-.074-.049-.137.019-.038.06-.129.106-.143.021-.006.012-.038-.007-.031A.865.865,0,0,1,50.476-45.728Zm-1.545-.018a5.5,5.5,0,0,1-.889,1.767.727.727,0,0,1,.7-.221.3.3,0,0,0,.333-.137,1.459,1.459,0,0,0,.142-1.409A.152.152,0,0,0,48.931-45.746ZM47.775-43.7a3.107,3.107,0,0,0,.267-.274A2.784,2.784,0,0,0,47.775-43.7Zm1.989-14.746a.023.023,0,0,0-.028-.027l-.012,0a.021.021,0,0,0,0,.041c-1.68.022-2.03,3.277-2.178,4.556a.548.548,0,0,0,.544.544c.14.006.852,2.206,1.031,2.55.117.224.44.028.336-.2-.4-.851-1.027-1.684-.61-2.711a.467.467,0,0,0-.221-.549c-.054-1.11-.36-2.02.212-3.153C49.1-57.9,49.642-57.963,49.764-58.451ZM20.8-56.851c.509.434.129.826.266,1.328a2.989,2.989,0,0,0,.619,1.026c.408.469.019.785-.138,1.254a.073.073,0,0,0,.089.088,1.309,1.309,0,0,0,.5-2.173c-.389-.5-.572-1.1-1-1.547a5.2,5.2,0,0,0-1.631-.965.046.046,0,0,0-.046.079C19.907-57.444,20.383-57.2,20.8-56.851Zm.236,16.6c.014.033.076.033.072-.009a8.632,8.632,0,0,1,.216-3.328c.164-.628.657-1.455.305-2.076a.016.016,0,0,0-.027,0A7.281,7.281,0,0,0,21.035-40.247Zm-.405,6.535c.013.055.086.09.117.026a2.213,2.213,0,0,0,.186-.646,1.5,1.5,0,0,0,.07-.632v-.009c.018-.152-.212-.2-.28-.075-.318.579-.1,1.147-.6,1.669-.48.507-1.384.19-1.953.051-.85-.206-1.53-.747-2.185.028a.024.024,0,0,0,.017.04c.363-.006.473.257.753.366a3.127,3.127,0,0,0,.888.2,6.245,6.245,0,0,0,1.616.015A2.35,2.35,0,0,0,20.63-33.712ZM9.163-28.4c-.12-.865-.122-2.3-.933-2.759.014-.005.026-.013.039-.017.164-.073.069-.307-.084-.313L7.1-31.838a.125.125,0,0,0-.127.215,1.456,1.456,0,0,0,.38.23.961.961,0,0,0,.272.063c-.026.009-.047.014-.078.027a.238.238,0,0,0-.105.391,4.152,4.152,0,0,1,.637,2.657,15.683,15.683,0,0,0,.488,2.427,53.477,53.477,0,0,1,1.01,6.64c.45,4.256.591,8.443.619,12.71a.028.028,0,0,0,.056,0,74.99,74.99,0,0,0-.292-15.237C9.738-23.936,9.471-26.195,9.163-28.4ZM4.395-61.937a7.088,7.088,0,0,0-.073-2.147q-.111-.489-.245-.973l-.126-.488c.057-.348-.051-.537-.321-.571,0-.007.007-.012.005-.021.007-.073.013-.147.02-.221.2-.264-.392-.484-.393-.105a7.413,7.413,0,0,0,.389,2.044,12.726,12.726,0,0,1,.261,3.027c.075,1.816-.627,3.895-.859,5.7a30.069,30.069,0,0,0-.363,6.168,29.759,29.759,0,0,0,1.184,4.967c.011.039.073.031.07-.009-.1-1.89-.641-3.7-.846-5.577a25.984,25.984,0,0,1,.21-6.161C3.55-58.191,4.184-60.063,4.395-61.937Zm8.35,28.617c-2.488-.569-4.28-1.518-5.558-3.805-1.064-1.9-1.924-3.86-2.869-5.818-.016-.035-.071-.01-.06.025.391,1.282.979,2.451,1.249,3.767a6.845,6.845,0,0,0,1.418,2.879,7.171,7.171,0,0,0,5.81,3.027A.038.038,0,0,0,12.745-33.32Zm-.331,10.609a.4.4,0,0,0-.774,0,6.49,6.49,0,0,0,.275,2.654,25.832,25.832,0,0,1,.362,4.426.077.077,0,0,0,.154,0,22.071,22.071,0,0,0-.042-3.487A26.761,26.761,0,0,0,12.414-22.711Zm1.411-6.844c-.479-.028-1.448-.189-1.722-.63a.414.414,0,0,0-.362-.208l-.123.011a.458.458,0,0,0-.434.569c.09.416.353.593.473,1.019a6.722,6.722,0,0,1,.188,1.5c.043.919-.132,1.837-.094,2.758a.03.03,0,0,0,.06,0c.081-1.03.206-2.059.336-3.084a6.3,6.3,0,0,0,.078-2.019,15.956,15.956,0,0,0,1.608.147C13.868-29.5,13.857-29.553,13.825-29.555ZM24.742-52.361a1.006,1.006,0,0,0,.562-.369.843.843,0,0,0,.272-.516c.1.019.18-.115.136-.211-.007-.015-.014-.031-.022-.046a.149.149,0,0,0-.17-.069.131.131,0,0,0-.084.069.2.2,0,0,0-.2.078,1.714,1.714,0,0,0-.212.476,1.633,1.633,0,0,1-.312.509C24.688-52.412,24.7-52.355,24.742-52.361ZM53.8-61.111c-1.623-.136-3.293-.232-4.627-1.246-.2-.085-.4-.169-.6-.25-.812-.336-1.143-1.1-1.552-1.781a18.709,18.709,0,0,0-1.73-2.391c-.029-.036-.089.011-.063.049a34.284,34.284,0,0,1,2.106,3.857c.328.666.577,1.712,1.5,1.791,1.575.135,2.667-.069,4.132.776.48.277.827-.139,1.018-.5A.208.208,0,0,0,53.8-61.111Zm1.676.579a.129.129,0,0,0-.158-.089.324.324,0,0,0-.085.029l-.035.021-.036.008c-.024-.017-.071-.049-.077-.052a1.119,1.119,0,0,1-.1-.1.335.335,0,0,0-.283-.086.227.227,0,0,0-.224.224.577.577,0,0,0,.52.545A.435.435,0,0,0,55.472-60.532ZM14.821-34.921c-1.511-.84-3.247-.985-4.773-1.765C8.2-37.629,7.34-39.93,6.536-41.712c-.01-.021-.044-.006-.037.016a13.486,13.486,0,0,0,2.638,4.921,4.977,4.977,0,0,0,2.05,1.559c1.186.381,2.39.059,3.56.473C14.851-34.7,14.916-34.867,14.821-34.921Zm1.3.372a.057.057,0,0,0,.024.094,1.442,1.442,0,0,0,.551.044c.2,0,.41.049.584-.083a.116.116,0,0,0,.04-.154C17.08-35.028,16.371-34.823,16.122-34.549Zm2.42.212c-.067.053-.021.148.045.171a1.554,1.554,0,0,0,1.77-1.261c.053-.592.383-1.107.422-1.7a3.929,3.929,0,0,0-.3-1.673.154.154,0,0,0-.3,0,4.456,4.456,0,0,0-.237,2.174,2.144,2.144,0,0,1-.372,1.517C19.335-34.7,18.883-34.611,18.542-34.337Zm1.566-5.913a2.59,2.59,0,0,0,.061-1.883.088.088,0,0,0-.159-.021c-.3.561.048,1.217-.125,1.81A.122.122,0,0,0,20.108-40.25Zm-.116-4.181a1.511,1.511,0,0,0-.367,1.177.215.215,0,0,0,.429,0,1.109,1.109,0,0,1,.276-.838C20.565-44.29,20.222-44.637,19.992-44.431ZM12.611-75.838a1.182,1.182,0,0,1,.328-.084c.113,0,.163.055.29.008.1-.036.337-.034.337-.194,0-.214-.227-.287-.406-.312a.286.286,0,0,0-.311.126c-.05.083-.262.151-.346.2a4.82,4.82,0,0,1-.474.192.072.072,0,0,0,0,.138A1.026,1.026,0,0,0,12.611-75.838Zm2.082-.607a.88.88,0,0,0-.659.138.171.171,0,0,0-.053.234h-.134a.02.02,0,1,0,0,.04c.056,0,.114,0,.17,0a.145.145,0,0,0,.017.019.773.773,0,0,0,.659.061c.111-.028.2-.106.313-.145.14-.052.289-.08.43-.131a.041.041,0,0,0,0-.079A5.6,5.6,0,0,0,14.693-76.445ZM36.93-81.328c.385.06.775.087,1.161.153.085.014.319.048.565.1.029.009.058.017.087.027a3.25,3.25,0,0,1,.752.411.01.01,0,0,0,0-.006c.183.1.475-.092.329-.324-.249-.4-1.162-.9-1.611-.641a.174.174,0,0,0-.085.185,4.592,4.592,0,0,0-1.2-.031C36.865-81.448,36.866-81.338,36.93-81.328ZM8.683-62.922c-.033.73.96,1.553,1.291,2.075.679,1.071,1.623,2.508,3.055,2.435a.1.1,0,0,0,.049-.181,10.379,10.379,0,0,1-2.054-1.344c-.947-.943-1.095-2.053-1.654-3.172-.385-.771-1.849-1.068-2.606-1.131-.013,0-.014.016,0,.02C7.44-63.98,8.723-63.8,8.683-62.922Zm7.678,5.159c.61.231,1.031-.013,1.647-.127a.077.077,0,0,0,0-.148c-.641-.136-.991-.423-1.647-.3s-1.318.03-1.977.131a.026.026,0,0,0,0,.049A10.564,10.564,0,0,1,16.361-57.763Zm2.443.051a.144.144,0,0,0,0-.287.742.742,0,0,0-.365.077.078.078,0,0,0,0,.133A.743.743,0,0,0,18.8-57.712Z" fill="#363538"/></g></svg>