<svg xmlns="http://www.w3.org/2000/svg" width="63.88" height="121.969" viewBox="0 0 63.88 121.969"><g transform="translate(0 121.969)"><path d="M29.192-102.25a.358.358,0,0,0,.122-.008,3.1,3.1,0,0,0,.7-.33,8.1,8.1,0,0,1,.746-.319,6.5,6.5,0,0,1,2.276-.215,6.588,6.588,0,0,0,1.875-.432.116.116,0,0,0-.013-.222,2.714,2.714,0,0,0-1.408-.141c-.488.132-.933.212-1.431.318a13.858,13.858,0,0,0-1.666.458c-.06.007-.119.017-.181.022a2.8,2.8,0,0,0-.887.137,11.828,11.828,0,0,0-1.1-1.609c-.034-.04-.09.016-.066.057a4,4,0,0,1,.738,1.987.257.257,0,0,0,.014.089,1.423,1.423,0,0,1-.743.263.022.022,0,0,0-.018.04A1.478,1.478,0,0,0,29.192-102.25Zm-5.9-5.561c.251-.122,0-.531-.242-.368a1.5,1.5,0,0,1-.268.15.452.452,0,0,0-.112.081c0,.006-.037.045-.052.065a.062.062,0,0,0-.011.06C22.726-107.526,23.1-107.713,23.3-107.811ZM29.87-36.962a.526.526,0,0,0,.275-.124A26.941,26.941,0,0,0,33.857-30.3c.025.026.067,0,.05-.031-1.574-2.324-2.165-4.966-3.283-7.492-.085-.189-.347-.357-.542-.19-.6.506-.09.553-.562-.493a15.032,15.032,0,0,1-.9-3.01,24.162,24.162,0,0,1-.088-8.075c.009-.063-.087-.084-.1-.021-.759,4.225-.776,8.475,1.036,12.441A.329.329,0,0,0,29.87-36.962ZM22.084-57.98a36.363,36.363,0,0,0,6.174-6.4,12.122,12.122,0,0,0,1.656-2.836,12.733,12.733,0,0,1,2.052-4.23.244.244,0,0,0-.315-.364c-1.611.923-1.519,3.645-2.409,5.165a35.021,35.021,0,0,1-6.07,7.22,50.93,50.93,0,0,1-7.412,5.972,18.579,18.579,0,0,1-4.3,1.857c-.739.238-1.5.332-2.213.641a4.107,4.107,0,0,1-2.339.537.184.184,0,0,0-.077.36A3.9,3.9,0,0,0,9.981-50.4q2.154-1.005,4.342-1.975C17.215-53.638,19.715-55.936,22.084-57.98ZM39.913-93.43c-.866.483-1.658.269-2.539.539a5.616,5.616,0,0,1-1.7.53c-1.173-.025-2.255.783-3.41.918-.051.008-.048.083,0,.081.564-.022,3.633-1.1,3.791-.586a.3.3,0,0,0,.447.16c1.152-.636,2.479-.62,3.467-1.568C40.021-93.4,39.958-93.455,39.913-93.43ZM11.2-99.031c.8-.181,1.495.134,2.137-.473.147-.141,0-.368-.175-.367-1.553-.011-3.2.929-4.6,1.5a.028.028,0,0,0,.018.053C9.468-98.494,10.316-98.831,11.2-99.031Zm7.878-8.9a4.963,4.963,0,0,1,.955-.28.293.293,0,0,0,.328.14,2.467,2.467,0,0,0,.877-.43.138.138,0,0,0-.082-.252,2.066,2.066,0,0,0-.722.092.28.28,0,0,0-.325.053,2.683,2.683,0,0,1-1.1.464c-.359.12-.711.241-1.056.394a.032.032,0,0,0,.018.061C18.343-107.757,18.709-107.838,19.079-107.927Zm3.192,62.678c.023-.038.047-.075.069-.113a.108.108,0,0,0,.07.011c.235-.047.431-.429.544-.622a2.25,2.25,0,0,0,.422-1.008.128.128,0,0,0-.2-.1,2.8,2.8,0,0,0-.608.815c-.129.2-.406.6-.3.847,0,0,0,0,0,0a.142.142,0,0,0,.032.037c-.024.04-.05.08-.075.119A.02.02,0,0,0,22.271-45.249Zm-2.677-61.543a6.184,6.184,0,0,1,1.822-.4,1.227,1.227,0,0,0,.983-.46.167.167,0,0,0-.089-.272,5.942,5.942,0,0,0-2.1.431c-1.186.343-2.305,1.174-3.535,1.352-.05.009-.067.093-.009.1A7.637,7.637,0,0,0,19.594-106.792Zm4.383,11.061a25.506,25.506,0,0,0-3.8,1.188c-.018.011-.018.048.008.047,1.409-.259,2.744-.654,4.131-1.016.334-.086,1.921-.2,1.856-.768a.137.137,0,0,0-.1-.122C25.492-96.5,24.536-95.889,23.977-95.731Zm.771.715c-.566.094-1.117.286-1.687.393,0,0,0-.006-.006-.009l-.028-.017a.236.236,0,0,0-.347.161A4.418,4.418,0,0,1,21.188-94c-.045.011-.026.076.015.077a14.231,14.231,0,0,0,1.518-.29.264.264,0,0,0,.232.13,3.5,3.5,0,0,0,1.847-.769C24.863-94.9,24.842-95.032,24.748-95.016Zm-1.6.674h0a.015.015,0,0,0,0-.008A.022.022,0,0,0,23.148-94.342Zm13.341,1.019a.205.205,0,0,0,.205.068,11.118,11.118,0,0,1,1.724-.334c.1-.015.156-.162.044-.208a2.054,2.054,0,0,0-1.705.093.169.169,0,0,0-.154-.029,10.773,10.773,0,0,0-2.1,1.018.029.029,0,0,0,.017.054A7.957,7.957,0,0,0,36.489-93.323ZM51.462-70.279a.064.064,0,0,0,.039-.11c-.394-.352-.99-.168-1.373-.547a.169.169,0,0,0-.175-.035,2.26,2.26,0,0,0-.27.143.13.13,0,0,0,.075.236c.063-.005.119-.016.176-.023C50.294-70.207,50.962-70.248,51.462-70.279ZM49.077-66.82c-.22,1.944.351,3.814.274,5.749a.234.234,0,0,0,.244.226c-.09,0,1.108,3.607,1.248,3.948a.032.032,0,1,0,.061-.019,26.51,26.51,0,0,0-.943-4.285.316.316,0,0,0-.181-.177,37.888,37.888,0,0,1-.669-5.439C49.113-66.836,49.079-66.839,49.077-66.82ZM59.716-86.244a4.158,4.158,0,0,0-2.745,1.227A18.571,18.571,0,0,0,54-81.9a.252.252,0,0,0-.08.067,29.513,29.513,0,0,0-1.869,2.816,23.122,23.122,0,0,0-1.825,3.911,2.469,2.469,0,0,0,.04,2.207c.32.6,1.762.23,2.193.414a.013.013,0,0,0,.011-.023c-.287-.219-.575-.442-.862-.662a.252.252,0,0,0-.27-.1c-1.384.3-.011-4,.1-4.235.167-.348.432-.877.757-1.436a6.351,6.351,0,0,1,1.915-2.284.334.334,0,0,0,.266-.045c.95-.593,1.19-1.565,1.842-2.439a5.728,5.728,0,0,1,3.531-2.329C59.872-86.064,59.832-86.247,59.716-86.244ZM54.29-68.67A6.476,6.476,0,0,0,55.611-69c.529.048,1.059.085,1.583.117.186.011.172-.274-.011-.286a40.925,40.925,0,0,1-5.3-1.041c-.027-.005-.03.032,0,.035.533.036.836.425,1.246.7a3,3,0,0,0,1.231.358l.047,0a9.019,9.019,0,0,1-1.032.1c-.908.037-2.214.716-2.954-.086-.036-.041-.088,0-.09.043-.051.869,1.443.885,2,.847A9.826,9.826,0,0,0,54.29-68.67Zm2.545-18.28c-3.711,1.96-5.971,6.344-7.2,10.162-.409,1.279-1.08,2.806-1.411,4.258-.488-1.42-1.2-2.786-1.758-4.17a52.439,52.439,0,0,0-1.5-5.361c-.1-.4-.207-.789-.326-1.183-.426-3.585-2.056-7.242-3.247-10.579-.677-1.9-1.584-3.721-2.382-5.566a25.441,25.441,0,0,0-2.232-4.575c-.574-1.408-1.441-2.709-2.022-4.13-.442-1.082-.873-2.171-1.368-3.231a10.89,10.89,0,0,0-3.8-4.968c-3.213-2.024-6.456.562-6.619,3.694a45.778,45.778,0,0,0-1.811-4.607c-.787-1.733-1.819-3.838-3.766-4.474a4.877,4.877,0,0,0-5.62,1.6c-1.056,1.536-.869,3.8-.346,5.618a3.039,3.039,0,0,0-2.733-.5,5.064,5.064,0,0,0-3.858,3.139,11.9,11.9,0,0,0-.234,5.927,62.111,62.111,0,0,0,1.371,7.747c.009.076.023.15.032.225-1.512-.591-3.147.411-4.282,1.437C.1-95.017-.017-93.013.02-90.966c.06,3.279-.068,6.544,0,9.82A25.922,25.922,0,0,0,1.1-72.868c-.465,1.517.434,3.433.867,4.842.35,1.137.809,2.434,1.148,3.753a11.4,11.4,0,0,1,.436,3.812,3.641,3.641,0,0,0-.453,1.6,8.441,8.441,0,0,0,0,3.192c.476,2.527.974,5.046,1.459,7.57A64.2,64.2,0,0,0,9.924-31.2c2.719,5.39,6.939,9.535,10.305,14.465A71.667,71.667,0,0,1,25.877-6.692c.368.875.723,1.753,1.072,2.635.444,1.122.6,2.421,1.084,3.513,0,0,0,.012,0,.015A.548.548,0,0,0,28.611,0,88.706,88.706,0,0,0,37.884-1.36a34.086,34.086,0,0,0,7.661-2.12,26.379,26.379,0,0,0,5.793-3.441,16.894,16.894,0,0,0,4.357-4.206,1.722,1.722,0,0,0,.817-1.422,1.775,1.775,0,0,0-.612-1.072c-.16-.29-.354-.571-.55-.875a39.753,39.753,0,0,1-1.89-3.793,21.6,21.6,0,0,1-1.42-4.127c-.2-.722-.793-2.658-.508-3.674.108-.069.213-.136.317-.2,2.748-.966,3.966-4.231,4.916-6.738A95.466,95.466,0,0,0,60.4-43.842a26.221,26.221,0,0,0,.75-10.928,45.9,45.9,0,0,1-1.061-7.184c-.052-1.539.029-3.017-.124-4.524.553-1.546.627-3.319,1.054-4.935.548-2.069.969-4.163,1.489-6.238.607-2.4,2.04-5.26,1.01-7.474a.245.245,0,0,0,0-.1C62.79-88.563,59.209-88.206,56.835-86.95Zm-44.2-23.426c.047.115.1.227.149.346-.086-.173-.174-.342-.266-.51C12.553-110.485,12.59-110.43,12.631-110.376ZM6-48.2c-.067-.187-.134-.373-.2-.561-.061-.266-.125-.531-.194-.8Q5.8-48.877,6-48.2Zm5.372,13.963c-.034-.085-.07-.168-.1-.251.044.086.087.173.131.259A.1.1,0,0,0,11.371-34.235Zm.984,2.256c-.013-.037-.024-.075-.036-.112.03.074.06.148.09.224C12.39-31.9,12.373-31.941,12.355-31.979Zm3.362,7.324c.049.058.1.115.149.173.021.048.042.1.064.143C15.858-24.444,15.788-24.55,15.717-24.655Zm1.842.63c-.008-.017-.014-.036-.023-.054l.122.176C17.626-23.944,17.591-23.983,17.559-24.025ZM27-6.438c-.01-.021-.019-.042-.028-.064.014.022.03.044.044.066Zm36.009-77.88c-.055,2.756-1.267,5.267-2.148,7.873-.585,1.729-1.018,3.5-1.637,5.222a7.868,7.868,0,0,0-.76,3.072c0,.032.05.037.055.006a24.569,24.569,0,0,1,1.515-4.13c.555-1.654,1.009-3.33,1.707-4.932-.139.426-.271.847-.384,1.261-.457,1.659-.822,3.34-1.2,5.021-.311,1.411-.887,2.979-.593,4.418-.038,3.321.186,6.581.45,9.9.151,1.892.484,3.761.562,5.66a23.671,23.671,0,0,1-.62,5.773,60.58,60.58,0,0,1-3.29,10.152,30.081,30.081,0,0,1-2.2,4.643,15.165,15.165,0,0,1-8.786,5.914.774.774,0,0,0-.415.074.606.606,0,0,1-.088.014.072.072,0,0,0-.114-.052.528.528,0,0,0-.1.093.043.043,0,0,0-.022,0,.02.02,0,0,0,0,.04.538.538,0,0,0-.014.131.151.151,0,0,0,.12.14,8.494,8.494,0,0,1,6.673,4.606,21.181,21.181,0,0,1,2.1,5.1A6.537,6.537,0,0,1,54-13.3c-.134-.2-.271-.4-.4-.623-1.246-2.154-2.452-4.3-3.856-6.365a.05.05,0,0,0-.085.054c1.212,2.465,2.368,4.885,3.439,7.412a16.529,16.529,0,0,0,.582,2.039c-.051.088-.106.173-.16.259a2.12,2.12,0,0,0-.126-.5c-.679-1.788-2.158-3.345-3.209-4.928-.013-.021-.051-.005-.039.018a28.1,28.1,0,0,1,1.723,3.662,5.893,5.893,0,0,1-.295,4.067c-.223.2-.453.4-.7.582a20.072,20.072,0,0,1-2.151,1.418,9.368,9.368,0,0,0-1.1.348c-.3.1-1.239.379-1.38-.026a.321.321,0,0,0-.36-.265c-.173-.171-.314-.428-.462-.592-.074-.082-.218.017-.179.116.07.175.194.366.28.559a.731.731,0,0,0,.039.2.256.256,0,0,0-.008.07,1.068,1.068,0,0,0,.179.525.316.316,0,0,0-.113.195c-.046.254-.37.5-.567.649-.927.383-1.863.736-2.791,1.066-1.208.43-2.47.832-3.76,1.169-1.179.224-2.354.487-3.539.607a3.856,3.856,0,0,1-3.579-1.53C30.955-3.827,30.793-4.5,30.1-5a.033.033,0,0,0-.049.043c.6,1.068.814,2.427,1.47,3.247a2.8,2.8,0,0,1-1.5-1.566c-.522-1.209-1.081-2.4-1.658-3.583a64.063,64.063,0,0,0-4.822-8.293.017.017,0,0,0-.029.019c.731,1.291,1.41,2.6,2.053,3.929a31.918,31.918,0,0,0-2.125-3.242,7.759,7.759,0,0,1-1.453-2.395s0,0,0,0a1.572,1.572,0,0,0,.08-.572c0-.049.013-.1.021-.144a0,0,0,0,1,0,0A.187.187,0,0,0,22.4-17.7s0-.007,0-.01c.159-.021.319-.083.473-.117.2-.043.406-.033.6-.09a.28.28,0,0,0,.183-.177.581.581,0,0,0,.082,0,.142.142,0,0,0,.06-.022c.3.016.593.024.89.026.011,0,.019.009.029.008.025,0,.045-.006.068-.009.2,0,.4,0,.6-.005.229-.007.455-.018.684-.028.589-.03.6-.231.128.361a.2.2,0,0,0,.055.31c1.8.714,2.089,4.041,2.822,5.639C29.807-10.238,30.61-8.7,31.3-7.1a10.254,10.254,0,0,0,2.052,3.488.364.364,0,0,0,.6-.285c-.164-1.506-1.7-2.75-2.472-4.025-1.176-1.954-2.539-4-2.926-6.283a8.97,8.97,0,0,0-.811-2.98,1.865,1.865,0,0,0-.755-.664.674.674,0,0,0-.292-.1,1.155,1.155,0,0,0,.222-.314.16.16,0,0,0-.15-.234c-.388.028-1.051.137-1.745.206a.094.094,0,0,0-.03-.079c-.124-.09-.23-.046-.354.026a.115.115,0,0,0-.054.091c-.246.017-.49.025-.72.019a.127.127,0,0,0-.135-.138c.005.014.01.024.013.032s-.008-.013-.012-.021v-.011s0,0-.007,0a.123.123,0,0,0-.116-.045.249.249,0,0,0-.085-.058.992.992,0,0,0-.391-.062c-.133-.011-.269-.016-.4-.021a.388.388,0,0,1,.036-.108,1.158,1.158,0,0,1,.391-.429,1.736,1.736,0,0,0,.265-.25,9.966,9.966,0,0,0,2.833-.416c.042,0,.085,0,.125,0a2.694,2.694,0,0,0,1.227-.041.106.106,0,0,0,.016-.194c-.692-.275-1.489-.1-2.138-.5a1.374,1.374,0,0,0-1-.113.841.841,0,0,0-.278-.287.24.24,0,0,0-.171-.225,25.6,25.6,0,0,1-3.621-.935c-.749-.364-1.183-1.182-1.769-1.768-.144-.2-.283-.382-.41-.542a13.485,13.485,0,0,1-1.163-1.7,2.123,2.123,0,0,0-.419-.812c-.435-.92-1.145-2.381-2.1-2.292-.817-2.506-2.357-4.77-3.6-7.075-.437-.99-.847-1.993-1.216-3.013-.6-1.669-1.114-3.362-1.8-5a26.777,26.777,0,0,1-1.1-2.542c-.586-1.917-1.123-3.849-1.708-5.765a8.585,8.585,0,0,0-.866-2.513,11.615,11.615,0,0,1-.016-5.682,13.386,13.386,0,0,1,1.555-2c.665-.834,1.719-1.278,2.3-2.146.058-.086-.078-.172-.143-.1a13.749,13.749,0,0,1-1.56,1.127c-.508.409-.956.893-1.445,1.323a4.246,4.246,0,0,0-.822.98,13.993,13.993,0,0,0-.7-2.782c-.006-.032-.015-.059-.02-.087a74.109,74.109,0,0,1-1.635-7.78,4.136,4.136,0,0,0-.516-2.461C1.074-76.2.878-77.718.8-79.254c-.12-2.362.023-4.728-.068-7.092C.641-88.657.277-91,.831-93.272a5.265,5.265,0,0,1,.294-.862l.009-.009a10.336,10.336,0,0,0-.225,1.824,19.321,19.321,0,0,0,.334,3.89c.193,1.238.143,2.472.291,3.7,0,.037.056.055.073.017.733-1.633-.068-4.008-.26-5.7a4.66,4.66,0,0,1,.681-3.695A16.124,16.124,0,0,1,3.32-95.438a2.657,2.657,0,0,1,.632.017c1.5.217,2.549,2.072,3.022,3.314.643,1.688.643,3.527,1.14,5.25.1.66.209,1.313.329,1.971a2.577,2.577,0,0,0-.75,0,5.671,5.671,0,0,0-1.959.455.062.062,0,0,0,.038.118,6.16,6.16,0,0,1,1.583-.192,2.045,2.045,0,0,1,.414.048c.181.042.226.191.368.287.067.045.125.086.183.127-.741.172-1.463-.033-2.175.171a.35.35,0,0,0-.4-.032c-.884.457-1.909.254-2.782.725a.018.018,0,0,0,.01.031c.882-.1,1.756-.107,2.639-.131a.425.425,0,0,0,.514.264,9.394,9.394,0,0,1,2.589-.509c.094.416.2.833.318,1.244.307,1.067.669,2.126,1.056,3.177a2.3,2.3,0,0,1-.268,1.687c-.316.419-1.083.474-1.538.655a16.084,16.084,0,0,1-2,.745c-.035.008-.023.067.013.062.869-.084,1.716-.239,2.59-.29a25.891,25.891,0,0,1-4.766,2.174c-.033.011-.015.057.018.054a17.281,17.281,0,0,0,4.017-1.426c1.013-.264,1.967-.96,2.9-.1a2.6,2.6,0,0,1,.451.566A8.351,8.351,0,0,1,9.93-67.387a.027.027,0,0,0,.035.041,4.5,4.5,0,0,0,1.122-.932A8.37,8.37,0,0,1,9.5-66.308c-.129.119.063.344.2.233a7.6,7.6,0,0,0,3.032-5.233c.425-3-.6-5.508-1.713-8.239C8.757-85.133,7.954-91.172,6.6-97.028c-.206-2.052-.4-4.09-.741-6.134a45.037,45.037,0,0,1-.8-5.177,7.276,7.276,0,0,1,.373-2.865c.958-1.363,2.038-3.1,4.006-2.279,1.519.633,2.494,2.671,3.107,4.07,1.061,2.441,1.292,5.177,2.021,7.733,0,.105-.011.208-.011.312-.006.281-.018,1.153-.358,1.286a.228.228,0,0,0,.08.443.64.64,0,0,0,.692-.5c.414,1.507.93,2.99,1.407,4.485a28.212,28.212,0,0,1,.482,2.9c.033.278.083.586.122.9-.1-.352-.246-.744-.4-1.23-.591-1.849-1.331-3.622-2.026-5.432a.033.033,0,0,0-.063.02c.424,1.482.932,2.938,1.356,4.419.437,1.522.08,2.9.521,4.358a4.306,4.306,0,0,1-1.8.461,8.348,8.348,0,0,0-3.6,1.181.028.028,0,1,0,.016.053,13.973,13.973,0,0,0,2.01-.761c1.045-.431,2.091-.029,3.147-.215.056-.01.231-.081.455-.169a4.672,4.672,0,0,1-1.02.792c-.871.368-1.8.61-2.656,1.031-.02.009,0,.034.013.029,1.135-.312,2.333-.521,3.438-.915a2.688,2.688,0,0,0,.418-.273c.778-.163,1.167.039,1.531.878.135.31.242.633.356.95.124.611.268,1.208.439,1.771.256.848.586,1.709.882,2.577a1.141,1.141,0,0,1-.236.94c-.245-.989-.883-1.861-1.217-2.83-.343-.992-.66-1.987-1.037-2.966a.061.061,0,0,0-.116.037c.287,1.147.536,2.3.736,3.469.1.563.827,2.113.565,2.563a.209.209,0,0,0,.091.282c.013.006.025.012.039.017l-.19.088c-1.859.888-3.827,1.7-5.745,2.477a.051.051,0,0,0,.033.1c1.466-.37,2.94-1.473,4.439-1.637a8.154,8.154,0,0,0,3.127-.852,6.454,6.454,0,0,1-.038,3.506A5.108,5.108,0,0,1,20.06-78.3a4.53,4.53,0,0,0-.47-1.019.072.072,0,0,0-.131.042c.042.633.222,1.244.258,1.879.013.2-.259.516-.344.692a3.36,3.36,0,0,0-.24.709c-.21.154-.416.3-.61.428A47.991,47.991,0,0,1,14.48-72.7c-.039.02-.007.084.032.068a13.122,13.122,0,0,0,1.947-1c.821-.047,1.4-.745,2.3-.592.611.1.657.756,1.007,1.093A1.473,1.473,0,0,0,20-72.62c.025.034.094.032.1-.019a7.288,7.288,0,0,0,.056-1.142c.145-.452.2-.943.363-1.39a5.082,5.082,0,0,1,.9-1.369c.29-.364.967-1.125.937-1.718a.219.219,0,0,0,.058-.2c-.557-3.517-2.358-6.71-3.144-10.177-.833-3.67-1.333-7.376-2.323-11.013-1.02-3.743-2.024-7.479-3.4-11.107-.365-.962-.809-2.706-1.756-3.482-.017-.111-.034-.221-.046-.328a8.1,8.1,0,0,1,.468-4.775c1.238-2.642,4.481-2.41,6.324-.707,2.783,2.574,3.518,6.572,4.723,10.125a10.97,10.97,0,0,0,.8,2.459c.24.9.456,1.8.7,2.7a36.189,36.189,0,0,1,1.4,6.216A8.851,8.851,0,0,0,27.4-94.376c1.22,2.055,1.22,4.181,1.695,6.391a39.43,39.43,0,0,0,.455,3.979c-.047.11-.093.218-.139.33-.273.658-1.305.791-1.9.924a31.851,31.851,0,0,0-3.371,1.169c-.026.009-.013.049.014.044.861-.241,1.706-.54,2.567-.781.835-.234,1.62.015,2.432-.214a.312.312,0,0,1,.171.138,2.759,2.759,0,0,0,.344.417,1.979,1.979,0,0,1,.2.251c.088.734.151,1.47.174,2.207a.45.45,0,0,1-.082-.081.255.255,0,0,0-.279-.1c-.817.235-.734-.269-1.3-.18-.32.051-.727.273-1.039.21a.3.3,0,0,0-.3.1c-.554.763-2.6.5-3.507.728-.041.01-.026.076.017.076a25.152,25.152,0,0,0,3.045-.151c.559-.091,1.174.063,1.691-.263a.876.876,0,0,1,.929-.145.145.145,0,0,0,.048.1,2.659,2.659,0,0,1,.761.727,2.068,2.068,0,0,0,1.046,1c.38.1.764-.405.949-.641a1.222,1.222,0,0,1,.737-.54,1.588,1.588,0,0,0,.367-.15l.673-.044c.241-.014.292-.407.035-.44a.449.449,0,0,0-.053,0A7.951,7.951,0,0,1,32.464-82a19.7,19.7,0,0,1-1.041-3.646c-.4-1.762-.85-3.5-1.329-5.233a.085.085,0,0,0,.044-.082c-.3-3.4-1.722-6.571-2.863-9.739-.547-1.506-1.043-3.166-1.655-4.761-.846-2.415-2.124-5.065-1.966-7.593a3.242,3.242,0,0,1,2.172-3.021c2.057-.751,4.147.772,5.4,2.209a16.685,16.685,0,0,1,2.659,4.918,28.41,28.41,0,0,0,2.162,5.071c-.019,0-.034-.012-.052-.013-.2-.025-.6.168-.429.426a.858.858,0,0,0,.349.258,2.7,2.7,0,0,1,.661.6c.22.256.462.5.7.745.439.863.906,1.717,1.329,2.611a39.94,39.94,0,0,1,2.118,5.651c.649,2.157,1.356,4.315,2.1,6.461.153.58.308,1.163.467,1.745.024.236.052.5.08.783-.783-2.3-1.832-4.538-2.632-6.827a.105.105,0,0,0-.2.065c.659,2.211,1.173,4.458,1.814,6.673A8.284,8.284,0,0,1,43-81.117c-.054.355-.194,1.452-.476,1.572a.314.314,0,0,0-.051.03c-.448-.073-.822-.15-.887-.275a.285.285,0,0,0-.325-.115,18.508,18.508,0,0,1-5.965.523.029.029,0,0,0,0,.057c.606.149,5.924.477,5.872.1.019.154.145.325.323.3.042-.007.09-.01.132-.017,1.342.87,1.837,2.757,2.39,4.184a6.491,6.491,0,0,1-.141,2.039c-.021.086-.051.171-.076.256,0-.1,0-.205,0-.3-.008-1.345-.495-2.8-1.874-3.237a.039.039,0,0,0-.034.067c1.871,1.38,1.188,4.056.582,6.035-.278.4-.567.784-.851,1.158-1.667,2.2-4.09,3.533-5.925,5.53a.028.028,0,0,0,.035.042,31.244,31.244,0,0,0,7.384-5.9c-2.682,3.664-7.019,6.083-10.2,9.329A56.844,56.844,0,0,0,27.27-52.9c-.728.847-1.492,1.664-2.173,2.551a4.73,4.73,0,0,0-.943,1.6.243.243,0,0,0,.142.257l-.047.073c.015-.024.032-.048.048-.072a.2.2,0,0,0,.295-.1,11.867,11.867,0,0,1,1.346-1.819c.731-1.013,1.405-2.058,2.156-3.056.356-.473.712-.944,1.074-1.41a49.445,49.445,0,0,1,5.637-5.5c1.055-.87,2.289-1.762,3.52-2.71a21.243,21.243,0,0,0-2.541,4.526c-2.148,4.973-2.644,10.46-3.379,15.768-.01.063.086.085.1.022.884-5.082,1.5-10.271,3.464-15.081a16.892,16.892,0,0,1,4.375-6.092,7.045,7.045,0,0,1,.946-.5,12.11,12.11,0,0,0-2.278,2.782c-.816,1.123-1.475,2.349-2.244,3.5-.017.026.027.055.046.031,2.255-2.94,5.96-8.635,9.544-4.309a6.251,6.251,0,0,1,.52,2.1,3.7,3.7,0,0,1-.949,2.705c-.07.048-.141.093-.215.151a8.221,8.221,0,0,0-2.61,3.972c-.01.036.045.056.064.024a7.645,7.645,0,0,1,2.453-3.042c0-.005,0,0,0-.005h0a5.988,5.988,0,0,1,1.319-.673,2.863,2.863,0,0,1,.587-.025,5.641,5.641,0,0,0-2.566,1.7.049.049,0,0,0,.073.066,4.319,4.319,0,0,1,3.989-.974,10.315,10.315,0,0,1,2.062,4.121c.007.034.061.017.05-.017a24.659,24.659,0,0,0-.63-2.578c-.006-.035-.015-.072-.019-.109a.324.324,0,0,0,.039-.061c.016-.012.028-.016.005-.008.019-.011.021-.015.02-.018s.005,0,.033.007c.063.013.137.046.207.064a3.272,3.272,0,0,1,.371.137.056.056,0,0,0,.021.007,6.6,6.6,0,0,0,1.858,1.448,4.86,4.86,0,0,0,3.038,1.373.062.062,0,0,0,.026-.116,7.565,7.565,0,0,1-3.488-2.188c-.285-.352-.3-.9-.629-1.275-.273-.314-.43-.353-.653-.731a.044.044,0,0,0-.081.026c.026.253-.009.595.03.876-.618-.979-1.067-2.1-1.8-3.115-.683-.955-.5-2.223-.781-3.322-.028-.165-.048-.331-.058-.476-.06-.97-.171-1.921-.181-2.894a28.338,28.338,0,0,1,.243-3.738,12.2,12.2,0,0,0,.41-2.474c-.358-3.957,2.31-8.335,4.629-11.34a12.274,12.274,0,0,1,4.281-3.649,3.641,3.641,0,0,1,4.539.817A5.564,5.564,0,0,1,63.014-84.318ZM54.13-32.8c-1.123,1.089-2.048,2.323-3.242,3.349a13.671,13.671,0,0,1-4.553,2.407,13.47,13.47,0,0,1-5.306.756,4.376,4.376,0,0,0-2,.648,7.456,7.456,0,0,1-2.818.692.118.118,0,0,0,.009.235,13.987,13.987,0,0,0,5.06-.207c.894-.262,1.65-.709,2.573-.918,1.116-.253,2.227-.493,3.327-.822a12.985,12.985,0,0,0,7.181-5.984C54.439-32.789,54.241-32.908,54.13-32.8ZM57.8-40.767c-.268.373-.409,1.081-.767,1.353a.626.626,0,0,0-.244.694c.069.306-.21.343-.312.547a6.282,6.282,0,0,0-.208.9,7.725,7.725,0,0,0-.525,2.01.085.085,0,0,0,.159.033c.281-.635.524-1.3.749-1.963.1-.288.1-.54.348-.689s.428-.376.7-.517a.6.6,0,0,0,.244-.692,6.414,6.414,0,0,1,.068-1.6A.122.122,0,0,0,57.8-40.767Zm1.736-5.547a10.085,10.085,0,0,0-.449,1.762c-.19.637-.407,1.266-.564,1.908a.145.145,0,0,0,.282.066c.218-.707.522-1.379.752-2.082a2.368,2.368,0,0,0,.144-1.662C59.666-46.39,59.565-46.368,59.534-46.314ZM42.575-23.869a20.582,20.582,0,0,1-3.731,1.042c-.092.015-2.471.449-2.446.482a.219.219,0,0,0-.245-.086c-.109.041-.218.083-.327.123a1.541,1.541,0,0,0-.378.114c-.135.057-.276.12-.418.186-1.2.462-2.387.943-3.559,1.5-.1.047-.052.214.054.169.219-.092,1.5-.538,2.64-.94a7.852,7.852,0,0,0,1.083-.213c.181-.037.357-.095.535-.146.22-.064.425.159.629.207a.277.277,0,0,0,.22-.031c1.285.241,2.543,4.181,3.131,5.252a69.143,69.143,0,0,0,3.795,7c.081.113.282.03.228-.109a67.218,67.218,0,0,0-3.373-6.524A40.737,40.737,0,0,1,38.548-19.8c-.11-.282-.209-.549-.315-.808,0-.029-.009-.058-.011-.087-.048-.61.533-.984.963-1.277a9.73,9.73,0,0,1,1.112-.506,3.074,3.074,0,0,0,.5-.326c.645-.211,1.286-.427,1.919-.634C42.993-23.53,42.847-23.972,42.575-23.869ZM44.23-24.4a.331.331,0,0,0-.583,0c-.087.235-.039.517.247.575a.33.33,0,0,0,.391-.249.457.457,0,0,0,.066-.107.152.152,0,0,0-.065-.2A.182.182,0,0,0,44.23-24.4ZM28.782-20.187a.26.26,0,0,0,.159.5c.259-.07.586-.069.74-.321a.13.13,0,0,0-.008-.134C29.472-20.469,29.057-20.291,28.782-20.187ZM54.636-34.7a.921.921,0,0,1-.07.142c-.031.049-.087.174-.017.073-.109.157-.2.362-.031.522a.425.425,0,0,0,.619-.083.594.594,0,0,0,.09-.607A.323.323,0,0,0,54.636-34.7Zm3.736-31.969a1.214,1.214,0,0,0-.134,1.457l-.047.015.03.034c.016.017.034.025.05.04a3,3,0,0,1,.16.6,47.179,47.179,0,0,1,.157,6.029,32.7,32.7,0,0,0,.676,5.667c.18.923.737,3.367.361,4.382a.173.173,0,0,0,.281.193c1-1.012-.631-4.793-.8-5.751a29.808,29.808,0,0,1-.341-5.779c.016-.859.075-1.718.118-2.576.047-.892-.052-1.906.04-2.8a.593.593,0,0,0,.211-.434,1.167,1.167,0,0,0-.35-1.043A.264.264,0,0,0,58.372-66.671Zm-15.759,15,.051-.035a.779.779,0,0,0,.4-.743.375.375,0,0,0-.7-.153.933.933,0,0,0-.073.724.412.412,0,0,1,.006.042A.212.212,0,0,0,42.613-51.673ZM42.3-49.881c.231-.1.257-.362.225-.585a.211.211,0,0,0-.111-.167c-.017-.021-.033-.042-.052-.062a.1.1,0,0,0-.155.05c0,.021-.011.042-.017.062a.207.207,0,0,0-.054.133c-.008.139-.093.251-.1.39A.2.2,0,0,0,42.3-49.881Zm-2.3-42.671a.31.31,0,0,0,.19.589A.31.31,0,0,0,39.993-92.552ZM38.643-97.1a6.226,6.226,0,0,1,.2,2.445c0,.35.29.4.2.756a.055.055,0,0,0,.094.05c.064-.027.128-.052.192-.078A.307.307,0,0,0,39.682-94c.935-.969-.107-2.323-.6-3.317a34.471,34.471,0,0,0-3.207-4.846.017.017,0,0,0-.029.018A30.75,30.75,0,0,1,38.643-97.1Zm-3.99-7.43a.067.067,0,0,0,.122-.039c-.015-2.184-1.406-4.4-2.5-6.223-1-1.68-2.045-3.77-3.9-4.636a.09.09,0,0,0-.1.146C31.545-112.4,32.417-108.108,34.653-104.534ZM34.444-79.5a.31.31,0,0,0,.19.59A.31.31,0,0,0,34.444-79.5Zm-17.468,6.76a.3.3,0,0,0,.353.174,1.433,1.433,0,0,0,.862-.593c.046-.063.034-.18-.06-.191a1.066,1.066,0,0,0-.521.08.258.258,0,0,0-.477-.088c-.506.807-1.66,1.052-2.438,1.5a.034.034,0,0,0,.02.062A5.611,5.611,0,0,0,16.976-72.736Zm1.834-.328a.406.406,0,0,0,.4-.334.281.281,0,0,0-.523-.187,1.037,1.037,0,0,0-.1.254A.221.221,0,0,0,18.81-73.064Zm-1.018,1.333c.02-.026.04-.056.059-.08a.177.177,0,0,0-.185-.285,6.506,6.506,0,0,0-2.092.839.022.022,0,0,0,.013.041,8.528,8.528,0,0,0,1.507-.393.245.245,0,0,0,.157.371c.7.138,1.122-.254,1.54-.777a.083.083,0,0,0-.107-.124A2.963,2.963,0,0,1,17.792-71.731Zm1.417-.574c.27-.176-.132-.545-.284-.254a.861.861,0,0,0-.09.234.068.068,0,0,0,.034.074A.307.307,0,0,0,19.209-72.3ZM16.5-70.73a.055.055,0,0,0-.034-.105A.055.055,0,0,0,16.5-70.73Zm7.675-6.962a6.161,6.161,0,0,1,1.824,0,7.73,7.73,0,0,0,1.7-.261.275.275,0,0,0,.208.195,1.972,1.972,0,0,0,1.454-.292c.076-.055.072-.208-.041-.221a10.2,10.2,0,0,0-1.021-.039.237.237,0,0,0-.228-.168v-.009l-.114,0a.23.23,0,0,0-.211.133,4.779,4.779,0,0,1-2.076.444,4.216,4.216,0,0,0-1.527.141A.044.044,0,0,0,24.17-77.692Zm4.889.173a6.937,6.937,0,0,1-3.974.71.017.017,0,0,0-.007.033c1.356.389,2.411-.034,3.683-.237a.231.231,0,0,0,.256.157,1.63,1.63,0,0,0,.708-.261.123.123,0,0,0-.01-.21,1.28,1.28,0,0,0-.3-.08A.248.248,0,0,0,29.059-77.519Zm-1.646,1.075c-.139.034-.336.113-.366.274a.163.163,0,0,0,.123.192,1.052,1.052,0,0,0,.417-.066,1.288,1.288,0,0,0,.435-.2.129.129,0,0,0-.075-.235A2,2,0,0,0,27.413-76.444Zm9.826-1.583a7.683,7.683,0,0,0,1.375-.072.094.094,0,0,1-.008.015.192.192,0,0,0,.179.278c.46-.061.922-.13,1.38-.206.1-.017.178-.182.05-.23a1.871,1.871,0,0,0-1.074-.007l.012-.024a.212.212,0,0,0-.251-.294,8.65,8.65,0,0,1-1.922.126c-.505-.013-.838-.34-1.28-.021a.034.034,0,0,0,.019.061C36.253-78.359,36.694-78.048,37.239-78.027Zm4.839-.012a.094.094,0,0,0,.011-.148.72.72,0,0,0-.594-.038.089.089,0,0,0-.013.163A.73.73,0,0,0,42.078-78.039Zm-4.93.383a.083.083,0,0,0-.106.119c.11.166.385.3.549.133a.094.094,0,0,0-.007-.132C37.472-77.662,37.285-77.585,37.148-77.656ZM6.8-65.253c-.52-.017-1.629.787-1.824-.009a.432.432,0,0,0-.694-.187A30.225,30.225,0,0,1,2.41-71.87a.028.028,0,0,0-.056,0c.094,2.445,1.687,4.728,1.562,7.142a.3.3,0,0,0,.411.272c.517.882,1.866.187,2.583-.559A.145.145,0,0,0,6.8-65.253ZM2.42-74.926c-.056-.322.111-.6.069-.905-.076-.546-.166-1.082-.277-1.621-.286-1.372-.819-3.227-.464-4.7a.28.28,0,0,0,.211-.218c.022-.092.043-.186.06-.28a.176.176,0,0,0-.166-.2c-.149-.305-.642-.105-.573.26.29,1.519-.11,3.153.127,4.708.125.828.507,1.591.578,2.44.031.378,0,.324.277.588C2.318-74.8,2.434-74.843,2.42-74.926Zm9.839-30.855c.281.92.487,1.865.7,2.8.243,1.077-.048,1.5.619,2.248a.145.145,0,0,0,.24-.113c.011-.341.031-.682.062-1.021a8.5,8.5,0,0,0-.46-1.264c-.336-1.109-.655-2.22-1.022-3.321a19.051,19.051,0,0,0-2.932-5.737.022.022,0,0,0-.037.024A24.965,24.965,0,0,1,12.259-105.781Zm1.441,5.459a.122.122,0,0,0,.075.232A.122.122,0,0,0,13.7-100.322Zm7.141-10.184a.173.173,0,0,0,.315-.1,9.2,9.2,0,0,0-1.212-3.476,47.056,47.056,0,0,1-1.767-4.636.05.05,0,0,0-.094.031c.362,1.4.8,2.775,1.3,4.137.281.772.6,1.528.849,2.312C20.673-110.858,20.134-111.394,20.841-110.506Zm.5,1.353a.388.388,0,0,0,.057-.709l.035.022a.326.326,0,0,0-.4-.03.582.582,0,0,0-.151.176A.387.387,0,0,0,21.342-109.153Zm.289.693a.111.111,0,0,0-.069-.211A.111.111,0,0,0,21.631-108.46Zm12.38,28.418.05-.049.027.059a.228.228,0,0,0,.217.151,3.713,3.713,0,0,1,.84.224c.063.021.108-.061.075-.11-.258-.4-.709-.446-.905-.819a.223.223,0,0,0-.349-.025l-.037.037c-.625-1.57-1.213-3.157-1.87-4.712a.044.044,0,0,0-.084.027,35.414,35.414,0,0,0,1.666,5.139A.221.221,0,0,0,34.011-80.042Zm3.935-.071a3.683,3.683,0,0,0-.389.064,1.153,1.153,0,0,1-.373-.054c-.187-.046-.455-.124-.62.01a.053.053,0,0,0-.006.08,2,2,0,0,0,.739.235.67.67,0,0,0,.731-.206A.089.089,0,0,0,37.946-80.113ZM22.54-76.329c.037.359.167.711.2,1.137a.311.311,0,0,0,.24.286c.669.153.833,1.076,1,1.633a.061.061,0,0,0,.118-.021c0-.814.017-1.747-.763-2.123a5.331,5.331,0,0,1-.15-1.3.291.291,0,0,0,.078-.293c-.01-.038-.019-.076-.029-.115a.3.3,0,0,0-.549-.044c-.024.048-.038.092-.056.138a1.736,1.736,0,0,0-.36.367A.219.219,0,0,0,22.54-76.329Zm3.138-.032a.365.365,0,0,0-.376.191.178.178,0,0,0,.01.177c.013.021.025.043.038.065a.073.073,0,0,0,.082.028.573.573,0,0,1,.254-.046,2.735,2.735,0,0,0,.326.014.106.106,0,0,0,.084-.163A.591.591,0,0,0,25.678-76.361Zm8.9-.858a.138.138,0,0,0,.186-.06,1.276,1.276,0,0,0,.064-.475.969.969,0,0,0-.147-.589.361.361,0,0,0-.568-.042c-.011.013-.021.027-.031.04a.207.207,0,0,0-.042.093l-.007,0a.771.771,0,0,0,.143.58A1.638,1.638,0,0,0,34.582-77.219Zm.76-.652a.288.288,0,0,0,.177.548A.288.288,0,0,0,35.342-77.871Zm-21.8,7.142a1.238,1.238,0,0,0,.148.01c.135.353.4.647.567,1.029a8.92,8.92,0,0,0,.622,1.379.105.105,0,0,0,.192-.062,4.311,4.311,0,0,0-.385-1.208c-.244-.6-.038-1.142-.2-1.736a.453.453,0,0,0-.648-.253.242.242,0,0,0,0-.038c-.027-.227-.37-.282-.416-.036-.033.183-.088.362-.117.546A.314.314,0,0,0,13.538-70.729Zm-.882,2.794c.463-.483,1.1-1.644.235-2.067a.1.1,0,0,0-.133.112,2.649,2.649,0,0,1-.088.9c-.033.337-.075.668-.127,1A.066.066,0,0,0,12.656-67.935ZM10.67-65.664a7.961,7.961,0,0,0,.888-.982,7.023,7.023,0,0,1,.982-1.17.017.017,0,1,0-.023-.026c-.354.365-.8.654-1.164,1.013a4.4,4.4,0,0,0-.819,1.072C10.485-65.668,10.6-65.606,10.67-65.664ZM6.414-61.841a10.744,10.744,0,0,0,1.179-1.112,4.37,4.37,0,0,1,2.058-1.123.443.443,0,0,0,.3-.325,1.7,1.7,0,0,0,.05-.553.265.265,0,0,0-.266-.243c-.262-.017-.381.127-.514.34-.142.234-.544.3-.658.6a3.631,3.631,0,0,1-1.077,1.2c-.392.368-.755.756-1.119,1.152C6.335-61.867,6.379-61.814,6.414-61.841ZM21.867-85.035A13.4,13.4,0,0,1,20.015-89.3a19.262,19.262,0,0,1-.483-2.487c-.1-.736.183-1.448.09-2.207-.02-.165-.195-.348-.377-.263l-.322.152a.24.24,0,0,0,.079.466,14.114,14.114,0,0,0,.686,3.9,13.515,13.515,0,0,0,1.957,4.855C21.743-84.748,21.966-84.895,21.867-85.035Zm-5.543-20.329-.119-.084c-.308-.346-.851.242-.5.529a.873.873,0,0,0,.149.157,4.956,4.956,0,0,1,.428,1.418c.156.559.326,1.111.515,1.658a4.846,4.846,0,0,0,1.22,2.2c.028.023.079,0,.063-.041a25.3,25.3,0,0,1-1.045-2.6,13.351,13.351,0,0,1-.752-2.474A.39.39,0,0,0,16.324-105.364Zm-3.379-8.244c.041-.825-.242-1.668-.28-2.5-.033-.684.08-1.342.058-2.018a.083.083,0,0,0-.156-.034,3.757,3.757,0,0,1-.53.661c-.233.261-.112.834-.1,1.144a5.54,5.54,0,0,0,.854,2.8A.083.083,0,0,0,12.945-113.608Zm.638-5.347c.111-.2.479-.6.139-.778s-.552.275-.662.511A.294.294,0,0,0,13.583-118.955Zm-7.6,66.42A6.454,6.454,0,0,1,5.5-55.119,9.287,9.287,0,0,1,5.638-59.1a.054.054,0,0,0,.07-.024,2.2,2.2,0,0,0,.154-.5c.056-.266-.224-.592-.507-.46-1.239.573-.81,2.579-.664,3.606.134.938.339,1.87.528,2.8.125.6-.029,1.6.487,2.052a.169.169,0,0,0,.259-.048A.877.877,0,0,0,5.986-52.535ZM31.92-22.5a.255.255,0,0,0-.074-.388c-.438-.3-.781-.181-1.19.142-.566.446-.561.567-1.139.4a3.851,3.851,0,0,0-2.463.626.073.073,0,0,0,.043.132c.713-.1,2.047-.818,2.629-.2a.205.205,0,0,0,.195.041,12.362,12.362,0,0,1,1.232-.364A1.149,1.149,0,0,0,31.92-22.5ZM34.179-25.1a.662.662,0,0,0-.688.03.71.71,0,0,0-.2.974.709.709,0,0,0,.8.282.715.715,0,0,0,.453-.885.053.053,0,0,0,0-.011c0-.009.006-.017.008-.026C34.628-24.981,34.383-25.129,34.179-25.1Zm-.128-1.043c.016.033.074.007.059-.029A37.365,37.365,0,0,0,32.3-29.69c-.734-1.283-2.6-3.562-2.144-5.092a.535.535,0,0,0-.276-.586A4.525,4.525,0,0,0,29-35.847c-.159-.074-.4.077-.311.266.594,1.312,1.489,2.444,2.162,3.733C31.862-29.913,33.088-28.1,34.051-26.139Zm2.606.25c-.063.039.124-.03.153-.053a.438.438,0,0,1,.144-.069c.067-.021.136-.035.205-.058a.631.631,0,0,0,.168-.136.134.134,0,0,0,.015-.21c-.066-.05-.115-.13-.207-.139a1,1,0,0,0-.35.022.93.93,0,0,0-.283.12c-.135.079-.135.172-.159.307A.208.208,0,0,0,36.657-25.889Zm1.459-.508c.025-.015.054-.031.081-.044a.438.438,0,0,0,.311-.032.236.236,0,0,0-.145-.45c-.133.047-.267.092-.3.247a.161.161,0,0,0-.006.031.3.3,0,0,0-.024.039.284.284,0,0,0-.028.152A.073.073,0,0,0,38.116-26.4Zm4.6-1.009a8.476,8.476,0,0,0,5.542-1.455.145.145,0,0,0-.123-.258,44.355,44.355,0,0,1-4.869,1.245,6,6,0,0,1-4.219-1.4c-.027-.017-.056.027-.032.046A7.087,7.087,0,0,0,42.717-27.406Zm8.051-3.933a1.583,1.583,0,0,0,.755-.447,5.91,5.91,0,0,0,.709-.7c.124-.154-.068-.41-.236-.275a6.843,6.843,0,0,0-.575.57c-.246.248-.525.44-.747.706A.09.09,0,0,0,50.768-31.339ZM55.5-38.006c.142-.3.263-.613.39-.922a3.229,3.229,0,0,0,.308-.9.123.123,0,0,0-.21-.107,3.527,3.527,0,0,0-.646,1.354c-.091.23-.187.46-.3.682-.044.087-.1.166-.146.252s-.06.108-.022.113a.061.061,0,0,0-.041.113C55.184-37.217,55.39-37.769,55.5-38.006ZM58.229-50.09c-.045-.581-.327-1.093-1.046-1a.084.084,0,0,0-.065.129,2.367,2.367,0,0,1,.347,1.246.386.386,0,0,0,.5.348c.6-.211.612.473.621.924A3.629,3.629,0,0,1,58.4-47.1c-.029.079.077.138.118.061C58.867-47.7,59.235-49.811,58.229-50.09ZM27.4-23.182c-.5.034-2.156,1-2.406.214a.29.29,0,0,0-.531-.043c-.8,2.039-2.954-2.114-4.2-1.331-.046.029-.009.11.043.088,1.379-.563,2.851,3.259,4.328,1.916.589.84,2.164.006,2.875-.519A.179.179,0,0,0,27.4-23.182Zm3.1-.62c.748-.341,1.667-.449,2.19-1.144.389-.515-.206-1.6-.726-1.836a.1.1,0,0,0-.122.135,2.571,2.571,0,0,1,.289.819c.068.349.081.468-.164.728a5.821,5.821,0,0,1-1.634.952C30.14-24.045,30.3-23.712,30.5-23.8ZM40.729-60.7c.8-1.055,2.159-2.33,3.566-1.706a3.055,3.055,0,0,1,1.269,1.474c.313.609-.039.763-.216,1.334-.117.381.534.53.606.134a3.763,3.763,0,0,1,.191-.87.142.142,0,0,0-.06-.184c-.969-.638-.645-2.981-2.377-2.61a5.117,5.117,0,0,0-3.033,2.391C40.655-60.7,40.707-60.668,40.729-60.7Zm3.995,2.5c-.113.1-.743.624-.432.783.172.087.31-.03.418-.157a.864.864,0,0,0,.186-.538A.1.1,0,0,0,44.724-58.2ZM28.571-63.329a6.108,6.108,0,0,0-.947,1.078,17.341,17.341,0,0,1-1.715,1.522c-2.354,1.967-4.547,4.146-6.732,6.3-.025.025.015.059.041.036,2.283-1.982,4.544-4.091,7.015-5.841a20.1,20.1,0,0,0,1.948-1.514c.12-.108,1.034-1.566,1.135-1.553.071.009.116-.09.045-.124C29.009-63.6,28.912-63.535,28.571-63.329Zm1.312-2.434a2.381,2.381,0,0,1-.369.617.151.151,0,0,0,.079.245c.414.08.729-.311.84-.665C30.534-65.885,30.01-66.071,29.883-65.763Zm20.392,1.668a50.78,50.78,0,0,1,1.191,5.609c.14,1.066-.036,1.918.819,2.67a.168.168,0,0,0,.269-.175c-.743-2.7-1.4-5.434-2.205-8.128C50.335-64.168,50.263-64.144,50.275-64.095Zm3.164,8.861c-.065-.175-.375-.14-.341.062.157.944,1.094,1.294,1.77,1.8.033.025.087-.013.057-.051a8.636,8.636,0,0,0-.7-.823A2.893,2.893,0,0,1,53.439-55.234ZM50.1-66.3c.193-.2.431-.688.143-.91a.111.111,0,0,0-.134-.011c-.26.194-.094.6-.123.862A.067.067,0,0,0,50.1-66.3Zm-.372-3.518a.733.733,0,0,0-.245.277.292.292,0,0,0,.063.336,1.222,1.222,0,0,0,.032.146,1.14,1.14,0,0,0,.087.175.122.122,0,0,0,.222-.073,1.011,1.011,0,0,1,0-.165c0-.016.005-.032.007-.048A.113.113,0,0,0,49.9-69.2a.288.288,0,0,0,.111-.234,1.031,1.031,0,0,0-.085-.323A.132.132,0,0,0,49.729-69.823Zm3.815-10.124c.061-.2-.267-.315-.341-.122-.638,1.649-2.132,2.971-1.713,4.877.017.08.153.055.14-.024C51.3-77.211,53.005-78.24,53.544-79.947Zm4.845-5.115a.775.775,0,0,0-.555.213.984.984,0,0,0-.217.219c-.051.062-.077.148-.125.2-.025.027,0,.08.041.063a2.2,2.2,0,0,1,.226-.047,1.259,1.259,0,0,0,.289-.113c.185-.109.355-.192.426-.405A.109.109,0,0,0,58.389-85.062Zm-4.546,33.31a.291.291,0,0,0-.134.114,2.757,2.757,0,0,1-.729-.4,11.613,11.613,0,0,0-1.025-.971c-.011-.007-.023.01-.013.018a10.616,10.616,0,0,1,.947,1.055,3.348,3.348,0,0,0,.77.453.215.215,0,0,0,.09.182c.122.089.244.168.371.246a.154.154,0,0,0,.223-.061,1.187,1.187,0,0,0,.759.22.145.145,0,0,0,.114-.223,2.476,2.476,0,0,0-.913-.707C54.167-51.919,53.971-51.8,53.843-51.752ZM49.547-29.7a.291.291,0,0,0,.252-.414s0,0,0,.006c-.043-.148-.1-.219-.2-.24a.3.3,0,0,0-.142.01.256.256,0,0,0-.116.074c.017-.019-.1.133-.034.066A.3.3,0,0,0,49.547-29.7ZM21.954-43.881a.244.244,0,0,0-.151-.464A.244.244,0,0,0,21.954-43.881ZM35.6-25.779a14.584,14.584,0,0,0-1.641-3.445c-.914-1.248-1.947-2.386-2.786-3.692-.016-.024-.05,0-.037.024a39.527,39.527,0,0,0,2.213,3.382c.874,1.253,1,2.727,1.777,3.959A.267.267,0,0,0,35.6-25.779Zm-.024,1.172a.282.282,0,0,0-.173-.536A.282.282,0,0,0,35.573-24.607ZM28.329-9.042c.181-.182-1.724-3.385-1.909-3.754a38.561,38.561,0,0,0-2.52-4.427c-.017-.024-.053,0-.037.023a69.04,69.04,0,0,1,3.469,6.843c.148.3.636,1.7,1,1.756a7.9,7.9,0,0,0,.835,1.87c.128.14.31-.032.277-.18-.15-.693-.415-1.352-.632-2.029A.286.286,0,0,0,28.329-9.042ZM48.446-21.711a1.051,1.051,0,0,1,.1.05.163.163,0,0,0,.263-.085,1.9,1.9,0,0,0,.1-.214.346.346,0,0,0-.524-.36.9.9,0,0,0-.078.067l0,0-.041.04a.26.26,0,0,0-.055.258A.366.366,0,0,0,48.446-21.711Zm.812,5.1a.225.225,0,0,0,.408-.131.741.741,0,0,0-.226-.539.542.542,0,0,0-.51-.175.139.139,0,0,0-.089.174,1.946,1.946,0,0,0,.164.3A1.924,1.924,0,0,0,49.258-16.611Z" fill="#312e23"/></g></svg>