<svg xmlns="http://www.w3.org/2000/svg" width="55.19" height="120.101" viewBox="0 0 55.19 120.101"><g transform="translate(0 120.101)"><path d="M23.125-93.881a.381.381,0,0,0,.521,0,.5.5,0,0,0,.159-.38.428.428,0,0,0-.429-.429.431.431,0,0,0-.414.543A.53.53,0,0,0,23.125-93.881ZM14.247-66.233c-.041.05-.081.1-.121.156,0,.061-.02.083-.045.067a.394.394,0,0,0-.195-.053.377.377,0,0,0-.264.638.377.377,0,0,0,.638-.265.4.4,0,0,0-.112-.268c-.042-.05.087-.22.112-.266C14.265-66.232,14.253-66.242,14.247-66.233Zm-4.256-.382a.2.2,0,0,0-.219-.284c-.1.024-.2.053-.3.087,0-.15-.006-.3-.011-.447a.3.3,0,0,0-.514-.214c-.05.065-.1.123-.159.183a36.747,36.747,0,0,1-1.692-6.985c-.47-2.741-1.173-5.439-1.754-8.155,0-.008-.012,0-.011,0,.51,2.74,1.089,5.465,1.529,8.217A36.18,36.18,0,0,0,8.39-66.7a.294.294,0,0,0,.448.155c0,.065,0,.127-.005.193a.325.325,0,0,0,.409.311C9.712-66.212,9.718-66.2,9.991-66.615Zm13.515-26.6c-.028-.071-.057-.141-.083-.213a.072.072,0,0,0-.137,0c-.025.072-.055.142-.082.213a.547.547,0,0,0-.209.31.377.377,0,0,0,.36.473.377.377,0,0,0,.36-.473A.557.557,0,0,0,23.506-93.219Zm.374-2.16q.3-.3.606-.61a.108.108,0,0,0-.083-.2c-.234.044-.351.061-.435.082.144-1.385.522-2.852.682-4.22.128-1.093.324-2.167.543-3.245.085-.419.142-2.374.618-2.536a.225.225,0,0,0-.059-.441c-.107-.005-.213-.011-.319-.014a.285.285,0,0,0-.285.284c.167,1.59-.442,3.082-.638,4.642-.244,1.938-.268,4.166-1.165,5.942A.31.31,0,0,0,23.88-95.379Zm-4.8,23.009a.417.417,0,0,1,.117,0,.363.363,0,0,0,.278-.66,1.224,1.224,0,0,0-.288-.13.405.405,0,0,0-.5.281A.407.407,0,0,0,19.077-72.37ZM20.8-74.01a1.112,1.112,0,0,1-.039-.173c0-.018-.035-.018-.039,0a1.006,1.006,0,0,1-.038.173C20.657-73.914,20.835-73.914,20.8-74.01ZM10.6-85.554l.032-.021a.3.3,0,0,0,.146-.255v-.024c.039-.028.083-.052.123-.081.007,0,.012-.01.018-.022.015-.033,0-.08-.043-.073a.273.273,0,0,1-.244-.056.308.308,0,0,0-.361.045.133.133,0,0,1-.029.029.246.246,0,0,0-.083.139A.3.3,0,0,0,10.6-85.554Zm2.587,10.095c.3,1.906,1.341,2.615,3.168,2.892a.1.1,0,0,0,.075-.175,4.912,4.912,0,0,1-2.454-2.411,23.075,23.075,0,0,1-.618-2.765A28,28,0,0,0,11.43-82.81c-.015-.036-.076-.01-.062.025.471,1.221.957,2.432,1.356,3.679A22.412,22.412,0,0,1,13.183-75.459ZM5.4-84.5c.27.1.779-.083,1.067-.127.408-.061.8-.045,1.194-.1.641-.1.917-.571,1.515-.8.2-.075.532-.115.6-.345.007-.03-.018-.07-.051-.065-.215.021-.4.225-.586.331-.524.306-1.074.112-1.638.306A4.411,4.411,0,0,1,6.423-85a3.4,3.4,0,0,0-.99.241.144.144,0,0,0-.07.171C5.363-84.574,5.378-84.512,5.4-84.5ZM9.755-60.7c.4-.952.215-2.03.737-2.969.565-1.014,1.717-1.507,2.556-2.248.048-.043-.014-.109-.067-.084a8.645,8.645,0,0,0-3.149,1.947,2.888,2.888,0,0,0-.5,1.248c-.007-.051-.014-.1-.022-.154-.005-.034-.064-.025-.061.009.014.171.024.342.035.512a3.758,3.758,0,0,0,.229,1.686c0,.008,0,.015,0,.022l.005.006a.25.25,0,0,1,.009.025l.006,0C9.584-60.629,9.713-60.6,9.755-60.7Zm11.7-13.962c.465-.691.233-.986.36-.534a.275.275,0,0,0,.5.064c1.07-1.9.49-3.916.484-6-.011-3.064.153-6.127.236-9.189,0-.059-.088-.059-.091,0-.119,2.589-.289,5.176-.412,7.766-.111,2.349-.355,4.566-.671,6.875a.154.154,0,0,0-.039.028,2.393,2.393,0,0,0-.576.864A.122.122,0,0,0,21.458-74.662Zm7.4-6.32a5.09,5.09,0,0,0-.678,1.832,4.315,4.315,0,0,0-.09,1.989.186.186,0,0,0,.356,0,6.44,6.44,0,0,0,.147-1.717,7.5,7.5,0,0,1,.3-2.089C28.9-80.989,28.871-81,28.86-80.982ZM23.2-91.5c-.09.052-.184.154-.137.27.039.1.164.186.268.108a.879.879,0,0,0,.072-.074c-.018.05,0,.012.019-.023.009-.017.016-.033.02-.04A.178.178,0,0,0,23.2-91.5Zm.2.3v0Zm14.313,9.916a7.8,7.8,0,0,0,1,.086c.207.012.95-.1,1.045.061a.8.8,0,0,0,1.184.088.122.122,0,0,0-.029-.221c-.255-.083-.651,0-.811-.239a.227.227,0,0,0-.351-.046c-.39.4-1.529.084-2.04.167A.054.054,0,0,0,37.722-81.285Zm6.089,1.944M29.535-97.66a14.618,14.618,0,0,0,.716-6.311c-.043-.28-.423-.172-.452.061-.1.806.334,1.549.3,2.4a25.648,25.648,0,0,1-.668,3.825A.054.054,0,0,0,29.535-97.66ZM43.458-74.083c.007-.025.046-.084.012-.057.221-.172-.072-.55-.3-.389a.422.422,0,0,0-.181.383A.24.24,0,0,0,43.458-74.083ZM29.1-85.776c.359,1.343-.064,2.662-.076,4.013,0,.042.066.053.074.012a14.065,14.065,0,0,0,.144-4.946c-.145-.759-.869-1.844-1.7-1.924a0,0,0,0,0,0,.006C28.448-88.4,28.909-86.474,29.1-85.776Zm2.833-25.2a.121.121,0,0,0,.04-.211,4.1,4.1,0,0,0,1.664-2.527c.156-.549.247-1.128.353-1.69a3.864,3.864,0,0,0,.2-1.117,2.434,2.434,0,0,0-2.068-1.391.078.078,0,0,0-.059.023.089.089,0,0,0,.018.127c.438.3,1.773,1.034,1.664,1.74a13.293,13.293,0,0,1-.411,1.925,3.59,3.59,0,0,1-2.392,2.625,3.7,3.7,0,0,1-2.042-1.077,1.51,1.51,0,0,0,.355.071.057.057,0,0,0,.057.048,6.857,6.857,0,0,1,.687-.035c.524.016.753.339,1.062.682a.367.367,0,0,0,.568-.073,14.629,14.629,0,0,0,1.3-3.559c.052-.145-.17-.2-.226-.062-.383.946-.51,2.338-1.372,2.994a2.285,2.285,0,0,0-1.4-.313c-.168-.015-.337-.02-.506-.028a.243.243,0,0,0,.016-.242,3.4,3.4,0,0,1-.113-1.773c0-.029-.038-.043-.045-.012-.091.379-.246.821-.308,1.249A19.441,19.441,0,0,1,29-116.553a.038.038,0,0,0-.075,0c-.058.753-.213,1.5-.287,2.247a4.019,4.019,0,0,0-.023,1.131,1.963,1.963,0,0,1-.231-.543.1.1,0,0,0-.048-.051,12.264,12.264,0,0,1,.062-3.5,2.576,2.576,0,0,1,.35-.167,3,3,0,0,1,.855-.5,4.345,4.345,0,0,1,1.06-.1c.357,0,.655.156,1.005.156a.056.056,0,0,0,.036-.014.056.056,0,0,0,0-.073c-.4-.44-1.132-.371-1.675-.335a2.9,2.9,0,0,0-1.019.1c-.277.138-.488.363-.772.5a.211.211,0,0,0-.1.239,1.278,1.278,0,0,0,.07.187C27.5-114.516,27.991-109.961,31.93-110.98Zm.625.879a.168.168,0,0,0-.116-.2.633.633,0,0,0-.267.006.152.152,0,0,0-.01.293,2.13,2.13,0,0,0-.115,1.181c.1.769-.5,1.525-.731,2.22-.013.04.042.056.063.027a14.741,14.741,0,0,0,1.034-1.917,1.675,1.675,0,0,0,.232-.573C32.688-109.424,32.491-109.765,32.555-110.1Zm1.926-3.433a3.411,3.411,0,0,1,.1-.328.975.975,0,0,0,.117-.3.052.052,0,0,0-.077-.045c-.187.09-.252.449-.3.629A.086.086,0,0,0,34.481-113.534ZM7.761-90.407a1.39,1.39,0,0,0-.571.123,1.225,1.225,0,0,0-.282.125,1.764,1.764,0,0,0-.189.2.1.1,0,0,0,.021.155.407.407,0,0,0,.123.039.747.747,0,0,0,1.043-.448A.153.153,0,0,0,7.761-90.407ZM33.3-111.314c-.046-.008-.193-.044-.084-.014a.5.5,0,0,0-.479.825.49.49,0,0,0,.829-.385.441.441,0,0,0,0-.073A.37.37,0,0,0,33.3-111.314Zm.849-1.541a.384.384,0,0,0-.424.172.739.739,0,0,0-.094.336c-.042.259.211.534.475.366a.639.639,0,0,0,.318-.512A.373.373,0,0,0,34.153-112.855ZM21.921-68.282c-.023-.013-.044-.028-.065-.042.011.008-.111-.05-.1-.029-.062-.066-.134-.117-.168-.149a.418.418,0,0,1-.051-.052c.044.049-.011-.053.006,0a1.03,1.03,0,0,1-.044-.207c-.047-.332-.55-.289-.627,0a.777.777,0,0,0,.268.843.587.587,0,0,0,.47.1.318.318,0,0,0,.109-.058.186.186,0,0,0,.038-.01.347.347,0,0,0,.2-.135A.168.168,0,0,0,21.921-68.282Zm-.163-.07a.052.052,0,0,0,.013.012s0,0,0,0ZM37.493-2.571c-.6.025-1.631.481-1.828-.357a.181.181,0,0,0-.223-.126,3.558,3.558,0,0,1-.4.1c-.191-.945.031-1.917-.221-2.854a.066.066,0,0,0-.127.035c.22,1-.086,2.017.118,3.022a.132.132,0,0,0,.162.092,1.079,1.079,0,0,1,.361-.033c.23.969,1.487.757,2.227.4A.148.148,0,0,0,37.493-2.571Zm6.564-41.354A91.149,91.149,0,0,0,46.2-55.306a.253.253,0,0,0-.248-.248.22.22,0,0,1-.247-.185.136.136,0,0,0-.248.105c.014.091.026.183.041.274a.209.209,0,0,0,.145.192c-.044,0-.539,4.322-.561,4.577a54.87,54.87,0,0,1-1.052,6.659C44.032-43.918,44.054-43.911,44.057-43.925Zm.785-8.515a1.6,1.6,0,0,0,.093-.918,3.411,3.411,0,0,0-.071-.471c-.023-.1-.107-.153-.128-.27a.023.023,0,0,0-.044,0c-.021.117-.1.172-.128.27a3.569,3.569,0,0,0-.071.471,1.587,1.587,0,0,0,.093.918A.149.149,0,0,0,44.842-52.44ZM35.827-18.217c.01-.051.02-.1.031-.15a.291.291,0,0,0-.353-.354,7.681,7.681,0,0,1-2.675.2,13.581,13.581,0,0,0-2.255-.225.116.116,0,0,0,0,.232c1.507-.018,3.525,1.188,4.966.42A.206.206,0,0,0,35.827-18.217ZM33.7-12.072c-.01-.154-.248-.154-.239,0,.187,3.1.079,6.328.473,9.4,0,0,0,0,0,0a.09.09,0,0,0,.1.091.091.091,0,0,0,.1-.091v0a24.35,24.35,0,0,0-.143-4.053C33.909-8.5,33.8-10.288,33.7-12.072ZM30.5-1.663a1.219,1.219,0,0,0-.414-.074c-.108-.018-.217-.043-.324-.069-.056-.012-.108-.036-.166-.046s-.12.016-.161-.011a.089.089,0,0,0-.13.1c.04.129.027.205.117.316a.888.888,0,0,0,.385.208,1.871,1.871,0,0,0,.486.08.382.382,0,0,0,.355-.189.1.1,0,0,0,.016-.127A.623.623,0,0,0,30.5-1.663ZM44.235-56.21c.064.09.132.18.2.268.084.108.3.132.333-.044a1.2,1.2,0,0,1,.106-.476.964.964,0,0,0,.141-.8.659.659,0,0,0-.46-.459c-.115-.042-.355-.071-.436-.15-.016-.014-.04.009-.024.024-.016.065-.031.129-.047.192a.644.644,0,0,0-.326.568.992.992,0,0,0,.272.668C44.074-56.328,44.168-56.309,44.235-56.21ZM32.783-8.432a.114.114,0,0,0-.228,0c-.115,1.132-.094,2.278-.126,3.414-.013.435.321,3.282-.043,3.488a.02.02,0,0,0,.01.037l.32.047a.168.168,0,0,0,.2-.116A7.056,7.056,0,0,0,33.1-4.52C33.042-5.819,32.928-7.14,32.783-8.432Zm15.8-30.245a.354.354,0,0,0,.123-.114c.137-.221-.023-.527,0-.784a1.738,1.738,0,0,0-.1-1,.143.143,0,0,0-.2-.051,1.432,1.432,0,0,0-.291,1.888A.38.38,0,0,0,48.578-38.677Zm1.982-23.75c-.33,1.162-.362,2.342-1.442,3.1a2.253,2.253,0,0,0-.927,1.066c-.129.249.217.556.407.316.431-.55,1.167-.914,1.51-1.5a8.006,8.006,0,0,0,.6-2.31c.558-2.471,1.412-4.816,1.1-7.386,0-.031-.053-.033-.051,0A19.46,19.46,0,0,1,50.56-62.427Zm-7.6,3.341a.677.677,0,0,0,.261.094c-.09-.01.043.053.054.066a1.749,1.749,0,0,1,.129.156c.058.078.209.063.2-.055a1.021,1.021,0,0,0-.429-.814c-.051-.029-.1-.055-.153-.079l-.165-.068c-.019-.016-.036-.031-.046-.038a.34.34,0,0,1,.034-.193.08.08,0,0,0-.133-.077.57.57,0,0,0-.1.685A1.045,1.045,0,0,0,42.963-59.086ZM54.48-48.57c-.349-2.123-.6-4.242-1.052-6.335-.051-2.64-.051-5.243.059-7.894a24.621,24.621,0,0,0-.416-7.532,8.043,8.043,0,0,0-3.739-4.831c-1.172-.7-3.04-1.053-4.227-.27a8.024,8.024,0,0,0-.273-4.544A5.815,5.815,0,0,0,38.2-83.227c-3.819.445-4.995,3.692-5.473,7.034-.021.066-.043.129-.065.194-.113-1.184-.28-2.364-.324-3.558a37.207,37.207,0,0,1,.335-5.312,44.279,44.279,0,0,0,.208-7.507,37.382,37.382,0,0,0,.684-6.659c.24-3.243.746-6.466,1.3-9.67.412-2.409,1.846-7.207-.179-9.389-1.674-3.018-5.449-2.344-7.342.117a12.042,12.042,0,0,0-1.879,4.922c-.339,1.65-.776,3.3-1.133,4.959-1.067,2.468-1.321,5.264-1.722,7.9-.505,3.324-.884,6.652-1.1,10.006q-.3,4.544-.32,9.091a20.748,20.748,0,0,1-.284,4.127,4.84,4.84,0,0,1-3.069-2.264,19.381,19.381,0,0,1-1.486-4.125c-.48-1.477-.783-3.645-1.78-5.013A46.446,46.446,0,0,0,12.7-95.4a74.084,74.084,0,0,1-1.937-9.488,12.441,12.441,0,0,0-1.416-4.373,5.571,5.571,0,0,0-1.693-2.355,2.477,2.477,0,0,0-1.536-.629,3.9,3.9,0,0,0-2.221-.187,4.06,4.06,0,0,0-2.76,1.544c-1.321,1.606-1.234,3.965-1,5.9a9.991,9.991,0,0,0,.378,2.723c.194.761.333,1.591.533,2.393.112.974.24,1.954.451,2.923.52,2.406.816,4.82,1.226,7.23a20.976,20.976,0,0,0,.415,3.786,23.88,23.88,0,0,0,.93,4.872c.527,2.333.975,4.682,1.423,7.035.764,4.029,1.623,8.034,2.476,12.046.116,1.955.3,3.9.379,5.858.094,2.479-.1,4.936-.19,7.413-.167,4.933.907,9.6,1.988,14.373a44.712,44.712,0,0,0,1.976,6.634c.936,2.359,2.629,4.277,3.561,6.63,1.508,3.793,1.074,8.308.943,12.487a18.567,18.567,0,0,0-.357,3.6.389.389,0,0,0,.19.331C21.43-1.973,26.855.219,32.6-.018c3.3-.134,6.5-1.132,9.812-1.275,1.423-.065,2.872.3,4.3.3,1.034,0,1.558-.94,2.134-1.65a.5.5,0,0,0,.1-.407,4.814,4.814,0,0,0-.565-2.247,55.71,55.71,0,0,1,.317-11.956c.371-2.359,1.543-4.417,2.337-6.635.451-1.252.866-2.54,1.216-3.84a37.893,37.893,0,0,0,2.923-13.2A36.645,36.645,0,0,0,54.48-48.57ZM43.593-80.552l-.013.009c-.008-.024-.017-.047-.025-.07C43.568-80.593,43.58-80.571,43.593-80.552Zm-.41.53.009.032-.015-.026A.034.034,0,0,0,43.183-80.022Zm-9.152.79a8.08,8.08,0,0,1,1.427-2.246,8.086,8.086,0,0,1,1.55-.762,6.023,6.023,0,0,1,5.33.473c.079.049.15.1.222.152a7.215,7.215,0,0,1,.409,1,.327.327,0,0,0-.12.171,1,1,0,0,0-.9-.338.115.115,0,0,0,0,.22,1.643,1.643,0,0,1,.892.951c.187.381.363.769.536,1.159,0,0,.005,0,.007.007.006.364,0,.733,0,1.111a.174.174,0,0,0,.261.149c-.412.216-.264,1.54-.235,1.914,0,.027.046.037.05.007.1-.678.151-1.362.3-2.032a.147.147,0,0,0-.067-.164,12.532,12.532,0,0,0,.112-1.853.272.272,0,0,0,0-.03h0v0l0,0,0-.011a.218.218,0,0,1,0-.026c.007.02.008.034,0,.037a.8.8,0,0,1,.137.067,1.054,1.054,0,0,1,.252.2,10.763,10.763,0,0,1,.17,2.876c-.033.684-.116,1.416-.192,2.163,0,0,0,0,0,0a13.84,13.84,0,0,0-.142,3.5,5.539,5.539,0,0,1-.109,2.844.937.937,0,0,1-.711.515,1.308,1.308,0,0,0,.445-.991,21.882,21.882,0,0,0-.786-5.176c-.009-.042-.08-.032-.078.012.075,1.216.436,2.395.459,3.614a2.927,2.927,0,0,1-1.2,2.511,20.352,20.352,0,0,1-2.716-.781,3.36,3.36,0,0,0-1.117-.624,3.529,3.529,0,0,0-.714-.667,4.539,4.539,0,0,1-1.931-1.646c-1.19-2.187-1-5.14-1.139-7.564a.04.04,0,0,0-.079,0,43.435,43.435,0,0,0,.572,7.835,1.662,1.662,0,0,0,.14.413,6.349,6.349,0,0,1-1.317-3.7A25.357,25.357,0,0,1,34.031-79.232ZM1.519-108.8a1.584,1.584,0,0,1,.8-.982,5.315,5.315,0,0,1,3.7-.463c-.089.6.432,1.142.589,1.761a8.624,8.624,0,0,1,.284,1.691c.007.2-.014.42-.012.634a1.34,1.34,0,0,1-.138.272,4.123,4.123,0,0,1-.79.75.066.066,0,0,0,0,.1.5.5,0,0,0,.612.121,3.3,3.3,0,0,1-1.638,1.136,1.337,1.337,0,0,1-.933-.073c-.182-.179-.363-.353-.539-.521a.571.571,0,0,0,.117-.008,1.909,1.909,0,0,0,.732-.419.8.8,0,0,0,.335-.167c.152-.052.312-.083.468-.126a.61.61,0,0,0,.132-.023.092.092,0,0,0,.043-.033.772.772,0,0,0,.1-.04.036.036,0,0,0-.019-.066l-.076,0a.1.1,0,0,0-.073-.049,3.028,3.028,0,0,1-.622-.112.465.465,0,0,0-.384.049,3.452,3.452,0,0,1-.386-.636,7.4,7.4,0,0,1-.451-.926.037.037,0,0,0-.072.019,4.129,4.129,0,0,0,.26.874,3.856,3.856,0,0,1,.351.858c-.118-.027-.179-.051-.315-.233a5.785,5.785,0,0,1-.518-.833c-.393-.766-.87-1.5-1.292-2.251a.033.033,0,0,0-.06.025,19.963,19.963,0,0,0,.943,2.4c.179.425.217.99.58,1.286a.811.811,0,0,1-.222-.06c-.029-.011-.051-.022-.076-.033a6.421,6.421,0,0,1-1-1.285c-.1-.2-.2-.39-.3-.583-.018-.04-.036-.077-.054-.12A3.27,3.27,0,0,1,1.519-108.8Zm51.2,40.119a22.585,22.585,0,0,1-.863,6.749,10.431,10.431,0,0,1-4.4,5.545c-.084.058-.037.215.073.178s.211-.084.316-.127a2.464,2.464,0,0,1,2.59,1.5A3.023,3.023,0,0,0,49.268-55.9c-.108-.056-.247.063-.174.175a10.87,10.87,0,0,1,1.535,6.516c-.22,1.949-1.187,3.765-1.569,5.671a.023.023,0,0,0,.034.025c1.772-1.181,1.557-3.826,1.782-5.7.187-1.559.491-3.617-.168-5.133a13.229,13.229,0,0,1,1.056,3.615c.128,3.229-1.478,6.076-1.987,9.2-.517,3.189.08,6.323-.67,9.513a29.319,29.319,0,0,1-3.568,8.791c-1.824,2.888-4.373,3.741-7.336,4.978-.073.033-.073.145.018.145.113,0,.222,0,.334-.01,3.281.432,5.641,2.268,5.6,5.821a8.086,8.086,0,0,1-.186,1.517,12.245,12.245,0,0,0-.558-1.9c-.641-1.66-1.211-3.31-3.091-3.786-.022,0-.037.027-.015.037,2.223,1.031,1.947,3.21,2.47,5.246a13.967,13.967,0,0,1,.611,3.562c0,.445-.008.865.014,1.285-.027.932-.035,1.869-.024,2.793-.01.027-.023.054-.033.083a13.338,13.338,0,0,0-.1-2.366,13.755,13.755,0,0,0-1.355-5.291.052.052,0,0,0-.1.038,18.963,18.963,0,0,1,.753,5.95,13.589,13.589,0,0,1-.735,2.765,17.907,17.907,0,0,0-2.039.138c-3.258.372-6.28,1.388-9.6,1.285a24.633,24.633,0,0,1-9.426-2.435.445.445,0,0,0-.062-.024,12.219,12.219,0,0,1-1.383-1.064,5.134,5.134,0,0,1-1.3-2.5,20.992,20.992,0,0,0,.108-5.6c-.15-2.357-.208-4.714-.3-7.073a.063.063,0,0,0-.125,0c-.063,1.752-.161,3.534-.225,5.319-.036-.583-.083-1.163-.157-1.725a31.693,31.693,0,0,0-.554-4.085c-.437-2.1-1.715-3.806-2.807-5.6A27.316,27.316,0,0,1,11.181-33.3C9.914-38.38,8.823-43.44,8.931-48.7c.1-4.92.422-10.008-.641-14.851a.16.16,0,0,0-.047-.088A99.784,99.784,0,0,0,6.47-73.55c-.666-3.583-1.27-7.234-2.108-10.8-.182-.782-.378-1.562-.586-2.334a3.253,3.253,0,0,0,1.179-1A7.241,7.241,0,0,1,8.8-89.623a.091.091,0,0,0-.026-.178A6.426,6.426,0,0,0,5.6-88.779c-.193.138-.378.288-.56.441-.233.028-.452.1-.689.112a1.373,1.373,0,0,0-.425.1,1.192,1.192,0,0,0-.146-.223.654.654,0,0,1-.124-.224c-.131-2.021-.55-4.085-.837-6.024-.339-2.3-.623-4.612-1.125-6.883a26.012,26.012,0,0,1-.617-4.168c.043.128.087.261.127.4a50.184,50.184,0,0,1,1.142,5.048c.315,1.872.661,3.737,1,5.6.325,1.81.254,3.824.9,5.535a.194.194,0,0,0,.282.115L4.9-89.2a.1.1,0,0,0-.076-.183c-.419.087-1.771-8.011-1.909-8.764-.329-1.792-.573-3.585-.764-5.4-.047-.439-.088-.787-.148-1.14.03.034.06.065.088.1a6.4,6.4,0,0,0,.635.722,2.479,2.479,0,0,0,.789.54,2.73,2.73,0,0,0,3.114-.62c1.264-1.173,1.072-3.375.512-5.1a3.488,3.488,0,0,0-.3-.828c-.016-.03-.036-.063-.056-.1-.054-.12-.108-.235-.164-.345a.19.19,0,0,0-.142-.2,4.906,4.906,0,0,0-2.679-.03,4.394,4.394,0,0,0-2.073.6,3.6,3.6,0,0,1,3.3-1.945,5.129,5.129,0,0,1,3.7,3.23,8.915,8.915,0,0,1,.408,4.216c-.123.773-.365,1.5-.457,2.278a.1.1,0,0,0-.162.07,7.918,7.918,0,0,0,.4,1.534A4.331,4.331,0,0,1,8.8-98.934c-.121-.027-.208-.086-.164-.235.006-.022-.021-.047-.042-.033-.056.043-.105.082-.158.126a.135.135,0,0,0-.035.13,4.917,4.917,0,0,0,.269.6c.088.271.356.331.594.419a10.272,10.272,0,0,1,.965,3.818,4.764,4.764,0,0,0,.153,1.715c.251.508,1.577,1.943,1.372,2.788-.083.124-.156.24-.222.348a.025.025,0,0,1-.014.016.292.292,0,0,0-.08.1c-.361-.335-1.012-.819-1.409-.5a.032.032,0,0,0,0,.043c.174.18.418.255.593.445a2.984,2.984,0,0,1,.313.656,2.333,2.333,0,0,0-1.4.321c-.076.078,0,.233.113.193a2.4,2.4,0,0,1,.867-.064c.338.008.425.5.542.74a1,1,0,0,0,.368.4,3.588,3.588,0,0,1-.11,1.038v0a.245.245,0,0,0,.175.3,1.046,1.046,0,0,1,.735.685,11.765,11.765,0,0,0,.518,1.747c.818,2.028,1.255,4.281,2.34,6.19A3.783,3.783,0,0,0,17.909-74.3a2.831,2.831,0,0,0,2.235-.651,4.668,4.668,0,0,1-1.248,1.4c-.047.034-.022.127.044.1,4.208-1.682,3.12-8.191,3.2-11.755q.1-4.839.627-9.653.12-1.2.273-2.4c.43-3.4,1.183-6.739,1.759-10.111.742-2.337,1.135-4.781,1.8-7.14a7.5,7.5,0,0,1,2.473-4.068c1.663-1.279,3.345-.729,4.816.312a6.79,6.79,0,0,1,.961,2.81,15.037,15.037,0,0,1-3.444,9.62,1.1,1.1,0,0,1-.306-.424.31.31,0,0,0-.374-.213c-.085.014-.168.036-.252.057-.477-.542-1.6-.52-2.21-.743-.026-.007-.037.03-.018.044.258.164,1.955.713,1.94.936a.212.212,0,0,0,.153.2,1.9,1.9,0,0,0,.208.048.614.614,0,0,0,.728.469.343.343,0,0,0,.062.117c.044.146.087.293.127.441a2.678,2.678,0,0,0-.906-.275,10.032,10.032,0,0,1-1.475-.512,14.978,14.978,0,0,1-2.585-.518.029.029,0,0,0-.029.051c1.059.813,2.545.515,3.535,1.505.117.115.331.112.463.137a.5.5,0,0,1,.221.092,8.916,8.916,0,0,1-.058,5.112c-.385,1.484-.3,3.49-1.6,4.422-.634-.137-1.267-.269-1.912-.388a4.333,4.333,0,0,0-1.656.047,12.222,12.222,0,0,1-1.843.459.015.015,0,0,0-.007,0s-.007.011,0,.013c.01.024.025.045.036.071a.051.051,0,0,0,.061.021c.609-.108,1.224-.179,1.836-.287a4.34,4.34,0,0,1,2.8.56,4.157,4.157,0,0,0,.462.142c.215.365.543.677.758,1.049a.813.813,0,0,1,.135.411c.01.109-.095.161-.154.233a.97.97,0,0,0-.528-.084.4.4,0,0,0-.2.055c-.281.156-.46-.08-.641-.222a.685.685,0,0,0-.761-.131c-.04.018-.025.084.015.094.6.167.957.737,1.518,1.016a2.565,2.565,0,0,1,1.143.893,1.359,1.359,0,0,0-.462.009,9.815,9.815,0,0,1-2.247.282,11.925,11.925,0,0,1-3.3-.936.052.052,0,0,0-.04.094,12.112,12.112,0,0,0,2.411,1.035c.945.606,1.909.882,2.626,1.971a5.318,5.318,0,0,1,.5.975c.678,2.508.279,5.589-.118,7.878-.576,3.311-1.468,6.406-.111,9.435-.018-.009-.034-.018-.051-.025a.385.385,0,0,0-.195-.052c.094.008-.028-.038-.049-.052a.859.859,0,0,0-.354-.128c-.014-.131-.028-.248-.031-.325-.039-1.232-.473-2.465-.616-3.7a.02.02,0,0,0-.04,0c-.027,1.486-.174,3.02-.066,4.5a.932.932,0,0,0-.169.044.673.673,0,0,1-.449.032.44.44,0,0,0-.143-.056,4.439,4.439,0,0,0-.952-.555,8.488,8.488,0,0,0-2.89.2c-.04,0-.044.069,0,.069.375,0,1.026-.08,1.657-.062a.108.108,0,0,0,.08.106c.095.023.185.052.279.07a.235.235,0,0,0,.017.071c0,.04-.01.079-.017.118a.684.684,0,0,1-.249.325,2.36,2.36,0,0,0-.669.722,17.441,17.441,0,0,1-1.7.8c-.051.015-.042.1.013.095.252-.034,1.739-.5,1.747-.464a.269.269,0,0,0,.39.158,6.07,6.07,0,0,1,1.92-.665.343.343,0,0,0,.312.151c1.753-.2,3.192-.029,4.038,1.483a1.485,1.485,0,0,0-.4-.118,3.3,3.3,0,0,1-1.419-.554,3.54,3.54,0,0,0-2.474-.309.028.028,0,0,0,0,.054c.481.078.968.091,1.453.16.656.092.931.479,1.36.891.365.348.861.376,1.2.791a.629.629,0,0,0,.308.253c.113.035.148.258.159.476a2.04,2.04,0,0,0-.02.319h.006a.167.167,0,0,0,.022.078c0,.013,0,.03,0,.04a.069.069,0,0,0,.111.047.154.154,0,0,0,.145-.046,4.708,4.708,0,0,0,.6-.8.4.4,0,0,0,.04-.336c0-.007,0-.012.005-.026a.514.514,0,0,1,.074-.141.342.342,0,0,1,.057-.057,1.345,1.345,0,0,1,.135-.05c.049.349.652.443.707.046l.006-.044c.095.011.191.016.287.032a1.632,1.632,0,0,1,.366.138c.035.015.08-.012.067-.052-.067-.228-.371-.307-.619-.3a6.741,6.741,0,0,0,.785-.16c.525.566,1.53.356,2.183.08a.1.1,0,0,0,0-.191c-.36-.111-1.283.176-1.666-.051a15.407,15.407,0,0,0,1.889-.762c1.143-.291,1.773.362,2.847.861a6.683,6.683,0,0,1,2.682,2.688,5.438,5.438,0,0,0-.809-.7c-.538-.375-1.131-.317-1.71-.6-.67-.323-1-.967-1.736-1.181a.019.019,0,0,0-.019.032c.515.482,1,.981,1.506,1.471s1.186.636,1.662,1.137c.32.336.675.717,1.055,1.088-.587-.039-.61-.268-1.01-.532a3.927,3.927,0,0,0-1.483-.691c-.066-.009-.116.08-.049.115a6.746,6.746,0,0,1,1.519.966,2.369,2.369,0,0,0,.782.633c.242.095.485.079.611.38a.609.609,0,0,0,.237.347,2.027,2.027,0,0,0,.894.2,5.9,5.9,0,0,0,.6,1.239c.2.3.513.506.724.805a4.166,4.166,0,0,1,.4,1.237.148.148,0,0,0,0,.059.134.134,0,0,0,.247.069.185.185,0,0,0,.033-.091,9.46,9.46,0,0,0,.95-3.47,10.081,10.081,0,0,0,.3-3,21.372,21.372,0,0,0-.833-3.72,8.245,8.245,0,0,1,.593-4.343,3.127,3.127,0,0,1,1.025-.232,4.764,4.764,0,0,1,2.245.607c.057.026.129-.049.072-.1a5.218,5.218,0,0,0-1.108-.658,3.611,3.611,0,0,0-1.209-.415,3.152,3.152,0,0,0-.566.051,2.419,2.419,0,0,1,1.653-.519,6.8,6.8,0,0,1,1.449.58c.076.032.152.058.233.086.16.127.324.265.488.418a7.149,7.149,0,0,1,1.951,4.369A.059.059,0,0,0,52.722-68.685Zm-1.869-2.262a.892.892,0,0,0,.657.385.22.22,0,0,0,.208-.276,1.363,1.363,0,0,0-.423-.517c-.126-.11-.349-.289-.515-.154S50.757-71.078,50.853-70.947ZM46.808-72.6a.217.217,0,0,0,.044.337c.023.017.047.033.07.048A.042.042,0,0,0,47-72.235a1.171,1.171,0,0,1,.269-.019,1.981,1.981,0,0,0,.422-.015.165.165,0,0,0,.072-.274A.764.764,0,0,0,46.808-72.6Zm-16.05,9.453a2.374,2.374,0,0,1,.315-.024,10.726,10.726,0,0,0,.242,4.106,41.516,41.516,0,0,1,.856,7.035.043.043,0,0,0,.086,0c.062-1.911-.03-3.823-.018-5.735.011-1.986.233-3.908-.418-5.826a.352.352,0,0,0-.511-.208c-.307.191-.412.253-.514-.074a.041.041,0,0,0-.077,0c-.033.106-.12.5-.124.512A.171.171,0,0,0,30.758-63.146Zm13.4,39.81a13.3,13.3,0,0,1-3.911,2.213c-.172.078-.085.356.095.35a5.006,5.006,0,0,0,4.96-3.893c.812-3.91,2.344-7.6,2.827-11.587,0-.022-.036-.026-.04,0a61.835,61.835,0,0,1-2.558,9.144C45.187-26.032,45.017-24.164,44.161-23.336ZM12.55-64.243a.659.659,0,0,0,.261.7.44.44,0,0,0,.456,0,.66.66,0,0,0,.263-.7A.511.511,0,0,0,12.55-64.243Zm20.289-.632c.149-.175.089.653.089.66,0,.4.03.793.067,1.188a4.611,4.611,0,0,0,.6,2.065c.046.072.183.051.174-.048-.057-.6-.236-1.184-.35-1.777-.149-.784-.153-1.583-.282-2.367a.071.071,0,0,0-.119-.031.759.759,0,0,0-.214.279C32.783-64.882,32.82-64.852,32.839-64.875Zm-10.91-5.6c-.175.018-.343-.006-.514,0a1.025,1.025,0,0,0-.506.161.277.277,0,0,0-.055.425.622.622,0,0,0,.561.221,1.405,1.405,0,0,0,.517-.2.242.242,0,0,0,.2-.108.571.571,0,0,0,.047-.066C22.257-70.219,22.166-70.495,21.929-70.473Zm.721,3.821a.228.228,0,0,0,.28.158c.21-.062.274-.18.452-.316s.36-.265.531-.411c.076.065.194.033.331-.031a.08.08,0,0,0-.018-.145c-.065-.01-.124,0-.127-.044a.139.139,0,0,0-.235-.1,4.839,4.839,0,0,1-.561.379c-.038.023-.113.081-.187.134,0-.017,0-.035,0-.053a.249.249,0,0,0-.248-.246.854.854,0,0,0-.6.161.178.178,0,0,0,.077.294,1.941,1.941,0,0,0,.281.034C22.635-66.775,22.64-66.716,22.65-66.652Zm-2.618-2.622,0,0a.3.3,0,0,0-.046-.319,3.638,3.638,0,0,0-1.219-.648,1.2,1.2,0,0,0-.932-.133c-.033-.015-.064-.027-.1-.041-.238-.086-.326-.344-.475-.551-.22-.3-.636-.189-.952-.338a.229.229,0,0,0-.231.4c.222.161.7.11.827.29a1.694,1.694,0,0,0,.484.576.478.478,0,0,0-.052.323,15.793,15.793,0,0,0-2.73.765c-1.551.527-2.833.851-3.339,2.552a.167.167,0,0,0,.073.179c.008,0,.014.01.022.013a.108.108,0,0,0,.135-.018.052.052,0,0,0,.036-.022c.255-.255.31-.815.892-.67a1.169,1.169,0,0,0,1.115-.428c1.63-2.244,4.015-1.552,6.392-1.534A.209.209,0,0,0,20.032-69.274Zm-.383,49.015a.384.384,0,0,0,.382.1.954.954,0,0,1,.281-.072.342.342,0,0,0,.082-.62.734.734,0,0,0-.342-.09c-.4-.286-.725-.148-1.232-.108-.3.024-.322-.322-.456-.514a.9.9,0,0,0-.488-.317c-.2-.069-.28.241-.087.319.435.171.258.664.585.937a.932.932,0,0,0,.567.223C19.227-20.393,19.435-20.494,19.649-20.259ZM9.561-51.3a.011.011,0,0,0-.022,0c-.027,3.161.279,6.277.563,9.419.107,1.19.488,2.359.69,3.535a11.583,11.583,0,0,0,.835,3.494c.07.134.248.032.228-.1-.359-2.377-1-4.621-1.455-6.971A56.668,56.668,0,0,1,9.561-51.3Zm7.3,26.642c-.772-.385-.725-1.726-1.288-2.4a12.268,12.268,0,0,1-1.728-2.257c-.422-.82-.788-1.64-1.266-2.431-.018-.029-.071-.011-.058.023.345.865.554,1.782.947,2.628a16.841,16.841,0,0,0,1.83,2.548c.469.678.048,2.858,1.505,2.332A.244.244,0,0,0,16.863-24.659ZM36.7-18.247a.068.068,0,0,0,.047.049c0-.008,0-.017-.005-.024a.129.129,0,0,0,.15.062.273.273,0,0,0,.171-.124c.088-.115-.075-.239-.183-.184a.271.271,0,0,0-.148.144.1.1,0,0,0-.026.024c-.025.044.013.016-.035.025a.015.015,0,0,0,0,.028Zm.342-48.671a.261.261,0,0,0,0-.521A.261.261,0,0,0,37.041-66.918Zm-2.663,1.7c.328.127.826-.108.808-.486a.222.222,0,0,0-.161-.212c-.212-.056-.308.038-.491.111-.09.036-.321.04-.342.162-.005.025-.009.05-.013.077A.29.29,0,0,0,34.378-65.219Zm-11.417,1.79a.031.031,0,0,0,.06,0,.743.743,0,0,1,.115-.226.254.254,0,0,0,.005-.188.157.157,0,0,0-.3,0,.254.254,0,0,0,.006.188A.791.791,0,0,1,22.961-63.429Zm1.38,59.78c-.648-.106-.929.882-.274.994.621.1,1.524.4,1.986-.2a.172.172,0,0,0,.025-.2C25.678-3.6,24.946-3.55,24.341-3.649ZM23.193-65.987a.289.289,0,0,0-.279.479.3.3,0,0,0,.134.084.232.232,0,0,0,.128,0,.024.024,0,0,0,.011,0c.006.02.011.038.016.059s.066.026.061-.009-.017-.077,0-.086A.288.288,0,0,0,23.193-65.987Zm-2.082,56.8c0-.017-.026-.016-.029,0a15.235,15.235,0,0,0-.133,4.26,4.772,4.772,0,0,1-.454-1.117.034.034,0,0,1,0-.01c-.164-2.548-.4-5.087-.468-7.64a.029.029,0,0,0-.057,0c-.045,2.408.005,4.823.054,7.234a.651.651,0,0,0-.392.064c-.095.048-.314-3.228-.324-3.452a38.7,38.7,0,0,1,.107-5.231c0-.034-.054-.043-.061-.007-.6,2.728.152,5.62-.466,8.292-.194.836-.105,1.619.668,1.589.348.694.893.76,1.76,1.169a.148.148,0,0,0,.185-.048.294.294,0,0,0,.18-.455C20.751-5.815,21.241-7.7,21.111-9.184Zm1.513,5.128a.428.428,0,0,0-.195.479.432.432,0,0,0,.521.3c.006,0,.012-.006.018-.007a.378.378,0,0,0,.212-.047.4.4,0,0,0,.182-.446A.5.5,0,0,0,22.624-4.056Zm.129.7L22.7-3.4a.436.436,0,0,0,.078.051Z" fill="#312e23"/></g></svg>